<svg width="25" height="25" viewBox="0 0 25 25" fill="none" xmlns="http://www.w3.org/2000/svg">
<path fill-rule="evenodd" clip-rule="evenodd" d="M15.53 1.96995C15.6704 2.11058 15.7493 2.3012 15.7493 2.49995C15.7493 2.6987 15.6704 2.88933 15.53 3.02995C12.972 5.58795 12.007 9.14295 12.939 12.061C15.857 12.993 19.412 12.028 21.969 9.46995C22.0381 9.39829 22.1209 9.34111 22.2123 9.30176C22.3038 9.26241 22.4022 9.24168 22.5018 9.24076C22.6014 9.23985 22.7002 9.25878 22.7924 9.29645C22.8845 9.33412 22.9683 9.38977 23.0388 9.46015C23.1092 9.53054 23.1649 9.61425 23.2027 9.70641C23.2404 9.79856 23.2595 9.89731 23.2587 9.99689C23.2578 10.0965 23.2372 10.1949 23.1979 10.2864C23.1587 10.3779 23.1016 10.4607 23.03 10.53C20.408 13.153 16.766 14.384 13.474 13.743C14.224 16.918 13.074 20.487 10.53 23.03C10.4613 23.1036 10.3785 23.1627 10.2865 23.2037C10.1945 23.2447 10.0952 23.2668 9.99449 23.2685C9.89379 23.2703 9.79376 23.2518 9.70037 23.2141C9.60698 23.1764 9.52215 23.1202 9.45093 23.049C9.37971 22.9778 9.32357 22.8929 9.28585 22.7995C9.24812 22.7062 9.2296 22.6061 9.23138 22.5054C9.23315 22.4047 9.2552 22.3054 9.29619 22.2134C9.33718 22.1214 9.39628 22.0386 9.46997 21.9699C11.886 19.5529 12.77 16.182 11.83 13.454L11.758 13.242L11.546 13.17C8.81897 12.23 5.44697 13.114 3.02997 15.53C2.88779 15.6624 2.69975 15.7346 2.50545 15.7311C2.31114 15.7277 2.12576 15.649 1.98835 15.5116C1.85093 15.3742 1.77222 15.1888 1.76879 14.9945C1.76537 14.8002 1.83749 14.6121 1.96997 14.47C4.51297 11.926 8.08197 10.776 11.257 11.526C10.617 8.23395 11.847 4.59195 14.47 1.96995C14.6106 1.8295 14.8012 1.75061 15 1.75061C15.1987 1.75061 15.3893 1.8295 15.53 1.96995Z" fill="white"/>
<path opacity="0.5" d="M20.5849 10.636L17.3089 7.35998C17.2393 7.29031 17.1566 7.23505 17.0655 7.19734C16.9745 7.15964 16.877 7.14024 16.7784 7.14024C16.6799 7.14024 16.5824 7.15964 16.4913 7.19734C16.4003 7.23505 16.3176 7.29031 16.2479 7.35998C16.1783 7.42964 16.123 7.51235 16.0853 7.60337C16.0476 7.69439 16.0282 7.79195 16.0282 7.89048C16.0282 7.989 16.0476 8.08656 16.0853 8.17758C16.123 8.2686 16.1783 8.35131 16.2479 8.42098L19.2559 11.429C19.7109 11.203 20.1559 10.938 20.5849 10.636ZM13.6079 5.66998L14.5559 6.61698C14.6246 6.69066 14.7074 6.74976 14.7994 6.79076C14.8914 6.83175 14.9907 6.85379 15.0914 6.85557C15.1921 6.85734 15.2921 6.83882 15.3855 6.8011C15.4789 6.76338 15.5638 6.70723 15.635 6.63601C15.7062 6.5648 15.7623 6.47996 15.8001 6.38657C15.8378 6.29319 15.8563 6.19316 15.8545 6.09245C15.8527 5.99175 15.8307 5.89244 15.7897 5.80044C15.7487 5.70844 15.6896 5.62564 15.6159 5.55698L14.4099 4.34998C14.1059 4.77498 13.8379 5.21698 13.6079 5.66998ZM11.3969 19.224L10.3349 18.16C10.1928 18.0275 10.0047 17.9554 9.81041 17.9588C9.61611 17.9622 9.43072 18.0409 9.29331 18.1784C9.1559 18.3158 9.07719 18.5012 9.07376 18.6955C9.07033 18.8898 9.14245 19.0778 9.27493 19.22L10.6279 20.574C10.9215 20.1457 11.1791 19.6938 11.3979 19.223L11.3969 19.224ZM4.35693 14.418L7.46993 17.531C7.61145 17.6675 7.80094 17.743 7.99758 17.7412C8.19423 17.7394 8.38231 17.6605 8.5213 17.5213C8.66029 17.3822 8.73908 17.1941 8.74069 16.9974C8.74231 16.8008 8.66662 16.6114 8.52993 16.47L5.69993 13.639C5.23154 13.8615 4.78234 14.1214 4.35693 14.418ZM7.00093 13.14L11.8129 17.952C11.828 17.9677 11.844 17.9824 11.8609 17.996C12.0345 17.4114 12.1425 16.8094 12.1829 16.201L8.79993 12.817C8.19012 12.8574 7.58673 12.9658 7.00093 13.14ZM18.0499 11.931C18.0217 11.8884 17.9892 11.8489 17.9529 11.813L13.0749 6.93498C12.8841 7.4918 12.7478 8.06582 12.6679 8.64898L16.3509 12.332C16.9284 12.2534 17.4971 12.1194 18.0489 11.932L18.0499 11.931Z" fill="white"/>
</svg>
