<svg width="25" height="25" viewBox="0 0 25 25" fill="none" xmlns="http://www.w3.org/2000/svg">
<path d="M12.4628 12.2131L12.5413 12.4588L12.787 12.5372C15.91 13.5347 19.6545 12.4927 22.3227 9.82343L22.3228 9.82349L22.3289 9.81714C22.3519 9.79325 22.3795 9.77419 22.41 9.76108C22.4405 9.74796 22.4733 9.74105 22.5065 9.74074C22.5397 9.74044 22.5726 9.74675 22.6034 9.75931C22.6341 9.77186 22.662 9.79041 22.6855 9.81387C22.709 9.83734 22.7276 9.86524 22.7401 9.89596C22.7527 9.92667 22.7591 9.95959 22.7588 9.99279C22.7585 10.026 22.7516 10.0588 22.7386 10.0893C22.7255 10.1198 22.7064 10.1474 22.6826 10.1705L22.6825 10.1704L22.6765 10.1765C20.1566 12.6973 16.6781 13.8574 13.5697 13.2522L12.8094 13.1041L12.9875 13.8579C13.6923 16.8415 12.6155 20.2384 10.1766 22.6763L10.1703 22.6826L10.1643 22.6891C10.1414 22.7136 10.1138 22.7334 10.0831 22.747C10.0525 22.7607 10.0194 22.768 9.98579 22.7686C9.95222 22.7692 9.91888 22.763 9.88775 22.7505C9.85663 22.7379 9.82835 22.7192 9.8046 22.6954C9.78087 22.6717 9.76215 22.6434 9.74958 22.6123C9.737 22.5812 9.73083 22.5478 9.73142 22.5142C9.73201 22.4807 9.73936 22.4476 9.75302 22.4169C9.76669 22.3862 9.78639 22.3586 9.81095 22.3358L9.81744 22.3297L9.82372 22.3234C12.3518 19.7943 13.3147 16.2293 12.3032 13.2921C12.3031 13.2918 12.3029 13.2914 12.3028 13.2911L12.2315 13.0812L12.1523 12.8478L11.9189 12.7685L11.709 12.6972C11.7087 12.6971 11.7083 12.697 11.708 12.6969C8.7749 11.6864 5.21318 12.6463 2.68455 15.1684C2.63775 15.2098 2.57704 15.2323 2.51439 15.2312C2.44962 15.2301 2.38783 15.2038 2.34202 15.158C2.29622 15.1122 2.26998 15.0504 2.26884 14.9857C2.26773 14.9231 2.29015 14.8624 2.33151 14.8156C4.76887 12.3823 8.16176 11.3085 11.1421 12.0126L11.8957 12.1906L11.7479 11.4305C11.1435 8.3219 12.3029 4.84334 14.8236 2.32357C14.8704 2.27685 14.9339 2.25061 15.0001 2.25061C15.0662 2.25061 15.1297 2.27682 15.1765 2.32349C15.2232 2.37034 15.2494 2.4338 15.2494 2.49995C15.2494 2.5661 15.2232 2.62954 15.1765 2.6764C12.5074 5.34553 11.4653 9.08999 12.4628 12.2131Z" fill="white" stroke="#6CBFB6"/>
<path opacity="0.5" d="M14.922 6.27612L14.9159 6.26956L14.9095 6.26324L14.2234 5.57781C14.3066 5.42824 14.3943 5.28006 14.4863 5.13355L15.2625 5.91038L15.2688 5.9167L15.2753 5.92278C15.2999 5.94567 15.3196 5.97327 15.3332 6.00393C15.3469 6.0346 15.3543 6.06771 15.3548 6.10127C15.3554 6.13484 15.3493 6.16818 15.3367 6.19932C15.3241 6.23044 15.3054 6.25872 15.2817 6.28246C15.2579 6.3062 15.2296 6.32491 15.1985 6.33749C15.1674 6.35006 15.134 6.35624 15.1005 6.35565C15.0669 6.35505 15.0338 6.34771 15.0031 6.33404C14.9725 6.32038 14.9449 6.30067 14.922 6.27612ZM10.7918 19.3252C10.7127 19.4791 10.6292 19.6307 10.5414 19.7797L9.63668 18.8744C9.59527 18.8276 9.57282 18.7669 9.57392 18.7043C9.57507 18.6395 9.6013 18.5777 9.64711 18.5319C9.69291 18.4861 9.75471 18.4599 9.81948 18.4587C9.88202 18.4576 9.94263 18.48 9.9894 18.5213L10.7918 19.3252ZM11.6662 16.3911C11.6463 16.5995 11.6179 16.8069 11.5811 17.0128L7.98743 13.4191C8.19362 13.3823 8.40132 13.3539 8.61 13.3339L11.6662 16.3911ZM13.3193 7.8862L17.1146 11.6815C16.92 11.7278 16.7238 11.7673 16.5263 11.8L13.2004 8.47405C13.2332 8.27672 13.2728 8.08065 13.3193 7.8862ZM16.9556 7.71353L19.7984 10.5563C19.6505 10.6475 19.5012 10.7342 19.3505 10.8162L16.6017 8.06742C16.5785 8.04418 16.5601 8.0166 16.5475 7.98624C16.5349 7.95588 16.5284 7.92334 16.5284 7.89048C16.5284 7.85761 16.5349 7.82507 16.5475 7.79471C16.5601 7.76435 16.5785 7.73677 16.6017 7.71353C16.625 7.69029 16.6526 7.67186 16.6829 7.65928C16.7133 7.64671 16.7458 7.64024 16.7787 7.64024C16.8115 7.64024 16.8441 7.64671 16.8744 7.65928C16.9048 7.67186 16.9324 7.69029 16.9556 7.71353ZM7.99325 17.2413C7.92879 17.2418 7.86664 17.2175 7.81974 17.1734L5.14776 14.5015C5.29629 14.4123 5.44747 14.3275 5.60111 14.2471L8.17282 16.8197C8.21705 16.8666 8.24148 16.9288 8.24095 16.9933C8.24041 17.0589 8.21415 17.1216 8.16782 17.168C8.12149 17.2143 8.0588 17.2407 7.99325 17.2413Z" fill="white" stroke="#6CBFB6"/>
</svg>
