<svg width="24" height="25" viewBox="0 0 24 25" fill="none" xmlns="http://www.w3.org/2000/svg">
<path d="M7.0251 17.476C7.16165 17.6176 7.23716 17.8071 7.23536 18.0037C7.23355 18.2003 7.15459 18.3884 7.01547 18.5274C6.87635 18.6664 6.6882 18.7452 6.49155 18.7468C6.2949 18.7484 6.10548 18.6727 5.9641 18.536L7.0251 17.476ZM18.0351 6.46405C18.1088 6.53271 18.1679 6.61551 18.2089 6.70751C18.2499 6.79951 18.2719 6.89882 18.2737 6.99953C18.2755 7.10023 18.2569 7.20026 18.2192 7.29365C18.1815 7.38703 18.1254 7.47187 18.0541 7.54309C17.9829 7.61431 17.8981 7.67045 17.8047 7.70817C17.7113 7.74589 17.6113 7.76442 17.5106 7.76264C17.4099 7.76086 17.3106 7.73882 17.2186 7.69783C17.1266 7.65684 17.0438 7.59773 16.9751 7.52405L18.0351 6.46405ZM16.0361 12.868L16.5671 12.337L16.0371 12.867L16.0361 12.868ZM11.6311 8.46305L12.1621 7.93205L11.6321 8.46205L11.6311 8.46305ZM4.4561 18.576L5.9241 20.044L4.8641 21.104L3.3951 19.637L4.4561 18.576ZM19.5461 6.42205L18.0781 4.95405L19.1381 3.89405L20.6071 5.36105L19.5471 6.42205H19.5461ZM19.5461 8.29805C19.9071 7.93705 20.1241 7.71805 20.2591 7.54105C20.2983 7.49327 20.3316 7.44088 20.3581 7.38505C20.3661 7.36505 20.3651 7.36105 20.3651 7.36005H21.8651C21.8651 7.80505 21.6751 8.15705 21.4521 8.45005C21.2411 8.72705 20.9381 9.02805 20.6071 9.35905L19.5471 8.29805H19.5461ZM20.6071 5.36105C20.9391 5.69205 21.2411 5.99305 21.4521 6.26905C21.6751 6.56305 21.8651 6.91505 21.8651 7.36005H20.3651C20.3651 7.36005 20.3651 7.35505 20.3581 7.33505C20.3316 7.27922 20.2983 7.22683 20.2591 7.17905C20.1241 7.00205 19.9071 6.78305 19.5461 6.42205L20.6061 5.36205L20.6071 5.36105ZM5.9241 20.044C6.2851 20.405 6.5041 20.623 6.6811 20.758C6.72888 20.7973 6.78126 20.8305 6.8371 20.857C6.8571 20.865 6.8611 20.864 6.8621 20.864V22.364C6.4171 22.364 6.0651 22.174 5.7721 21.951C5.4951 21.74 5.1941 21.437 4.8631 21.106L5.9241 20.046V20.044ZM8.8611 21.105C8.5301 21.437 8.2291 21.74 7.9531 21.951C7.6591 22.174 7.3071 22.364 6.8621 22.364V20.864C6.8621 20.864 6.8671 20.864 6.8871 20.857C6.94293 20.8305 6.99532 20.7973 7.0431 20.758C7.2201 20.623 7.4391 20.406 7.8001 20.045L8.8601 21.105H8.8611ZM4.4561 16.701C4.0951 17.062 3.8781 17.281 3.7431 17.458C3.70384 17.5058 3.67059 17.5582 3.6441 17.614C3.6361 17.634 3.6371 17.638 3.6371 17.639H2.1371C2.1371 17.194 2.3271 16.842 2.5501 16.549C2.7611 16.272 3.0641 15.972 3.3951 15.64L4.4561 16.701ZM3.3961 19.638C3.0641 19.306 2.7611 19.006 2.5501 18.73C2.3271 18.436 2.1371 18.084 2.1371 17.639H3.6371C3.6371 17.639 3.6371 17.644 3.6441 17.664C3.67116 17.7196 3.70437 17.7719 3.7431 17.82C3.8781 17.997 4.0951 18.215 4.4561 18.576L3.3951 19.637L3.3961 19.638ZM15.1401 3.89405C15.4721 3.56305 15.7721 3.26005 16.0481 3.04905C16.3421 2.82605 16.6941 2.63605 17.1391 2.63605V4.13605C17.1391 4.13605 17.1341 4.13605 17.1141 4.14305C17.0582 4.16955 17.0059 4.20279 16.9581 4.24205C16.7811 4.37705 16.5621 4.59405 16.2011 4.95505L15.1411 3.89505L15.1401 3.89405ZM18.0781 4.95405C17.7171 4.59405 17.4971 4.37705 17.3201 4.24205C17.2723 4.20279 17.2199 4.16955 17.1641 4.14305C17.1441 4.13505 17.1401 4.13605 17.1391 4.13605V2.63605C17.5841 2.63605 17.9361 2.82605 18.2291 3.04905C18.5061 3.26005 18.8071 3.56305 19.1381 3.89405L18.0781 4.95405ZM9.5941 20.046L10.3281 20.78L9.2681 21.841L8.5331 21.106L9.5931 20.047L9.5941 20.046ZM12.9381 20.78C13.2911 20.428 13.5191 20.198 13.6781 20.008C13.8291 19.826 13.8671 19.737 13.8811 19.683L15.3301 20.073C15.2361 20.423 15.0481 20.707 14.8301 20.969C14.6181 21.223 14.3321 21.508 13.9991 21.841L12.9381 20.78ZM13.9981 17.11C14.3321 17.443 14.6181 17.728 14.8301 17.982C15.0481 18.244 15.2361 18.528 15.3301 18.878L13.8811 19.266C13.8671 19.213 13.8291 19.124 13.6781 18.943C13.5191 18.753 13.2911 18.522 12.9381 18.169L13.9981 17.11ZM13.8811 19.683C13.9177 19.5461 13.9177 19.403 13.8811 19.266L15.3301 18.878C15.4351 19.269 15.4351 19.681 15.3301 20.073L13.8811 19.683ZM14.0001 21.84C13.6661 22.173 13.3811 22.46 13.1271 22.671C12.8651 22.89 12.5811 23.078 12.2311 23.171L11.8431 21.723C11.8961 21.708 11.9851 21.671 12.1671 21.519C12.3571 21.361 12.5871 21.132 12.9391 20.779L13.9991 21.841L14.0001 21.84ZM10.3291 20.78C10.6821 21.132 10.9111 21.36 11.1011 21.52C11.2831 21.67 11.3721 21.708 11.4251 21.723L11.0371 23.171C10.6871 23.078 10.4031 22.89 10.1411 22.671C9.8861 22.459 9.6011 22.174 9.2681 21.841L10.3281 20.78H10.3291ZM12.2311 23.171C11.84 23.2758 11.4282 23.2758 11.0371 23.171L11.4251 21.723C11.562 21.7598 11.7062 21.7598 11.8431 21.723L12.2311 23.171ZM3.7201 11.562C3.46319 11.8094 3.21633 12.0669 2.9801 12.334C2.8301 12.516 2.7921 12.605 2.7781 12.658L1.3281 12.27C1.4221 11.92 1.6101 11.636 1.8281 11.374C2.0411 11.12 2.3271 10.834 2.6601 10.501L3.7201 11.562ZM2.6601 15.232C2.3271 14.899 2.0401 14.615 1.8291 14.36C1.6101 14.098 1.4221 13.814 1.3291 13.464L2.7781 13.076C2.7921 13.129 2.8291 13.218 2.9811 13.4C3.1391 13.59 3.3681 13.82 3.7211 14.172L2.6601 15.232ZM2.7781 12.658C2.74138 12.795 2.74138 12.9391 2.7781 13.076L1.3281 13.464C1.22332 13.0729 1.22332 12.6612 1.3281 12.27L2.7781 12.658ZM2.6601 10.501C2.9931 10.168 3.2781 9.88205 3.5321 9.67105C3.7941 9.45105 4.0781 9.26405 4.4281 9.17105L4.8171 10.619C4.7641 10.633 4.6751 10.671 4.4931 10.822C4.3031 10.981 4.0721 11.209 3.7201 11.562L2.6601 10.501ZM6.3311 11.562C6.08374 11.3052 5.8252 11.0583 5.5581 10.822C5.3771 10.671 5.2881 10.633 5.2351 10.619L5.6231 9.17005C5.9731 9.26405 6.2571 9.45205 6.5191 9.67005C6.7731 9.88205 7.05809 10.168 7.3911 10.501L6.3311 11.562ZM4.4291 9.17005C4.82051 9.06509 5.23168 9.06509 5.6231 9.17005L5.2351 10.619C5.09816 10.5825 4.95403 10.5825 4.8171 10.619L4.4281 9.17105L4.4291 9.17005ZM20.6071 9.03305L21.3411 9.76705L20.2811 10.827L19.5461 10.094L20.6061 9.03405L20.6071 9.03305ZM21.3401 14.5C21.0071 14.833 20.7221 15.119 20.4681 15.33C20.2061 15.55 19.9221 15.737 19.5721 15.83L19.1831 14.382C19.2361 14.368 19.3251 14.33 19.5071 14.179C19.6971 14.02 19.9271 13.792 20.2791 13.439L21.3401 14.499V14.5ZM17.6701 13.439C18.0221 13.792 18.2521 14.02 18.4421 14.179C18.6231 14.33 18.7121 14.368 18.7651 14.382L18.3771 15.831C18.0271 15.737 17.7431 15.549 17.4811 15.331C17.2271 15.119 16.9421 14.833 16.6091 14.5L17.6701 13.439ZM19.5711 15.831C19.18 15.9359 18.7682 15.9359 18.3771 15.831L18.7651 14.382C18.902 14.4187 19.0462 14.4187 19.1831 14.382L19.5721 15.831H19.5711ZM20.2791 13.439C20.6321 13.086 20.8611 12.856 21.0191 12.667C21.1711 12.485 21.2091 12.396 21.2231 12.343L22.6711 12.731C22.5781 13.081 22.3901 13.365 22.1711 13.627C21.9591 13.881 21.6731 14.167 21.3401 14.5L20.2801 13.439H20.2791ZM21.3401 9.76905C21.6731 10.102 21.9601 10.386 22.1711 10.641C22.3901 10.903 22.5781 11.187 22.6711 11.537L21.2231 11.925C21.2081 11.872 21.1711 11.783 21.0191 11.601C20.8611 11.411 20.6321 11.181 20.2791 10.829L21.3401 9.76905ZM21.2231 12.343C21.2598 12.2061 21.2598 12.062 21.2231 11.925L22.6711 11.537C22.7761 11.928 22.7761 12.34 22.6711 12.731L21.2231 12.343ZM10.0001 3.16005C10.3341 2.82705 10.6191 2.54005 10.8731 2.32905C11.1351 2.11005 11.4191 1.92205 11.7691 1.82905L12.1571 3.27805C12.1041 3.29205 12.0151 3.32905 11.8331 3.48105C11.6431 3.63905 11.4131 3.86805 11.0611 4.22105L10.0011 3.16005H10.0001ZM13.6711 4.22005C13.4238 3.96312 13.1663 3.71625 12.8991 3.48005C12.7171 3.33005 12.6281 3.29205 12.5751 3.27805L12.9631 1.82805C13.3131 1.92205 13.5971 2.11005 13.8591 2.32805C14.1141 2.54105 14.3991 2.82705 14.7321 3.16005L13.6721 4.22005H13.6711ZM11.7701 1.83005C12.1612 1.72527 12.573 1.72527 12.9641 1.83005L12.5761 3.27805C12.4392 3.24134 12.295 3.24234 12.1581 3.27905L11.7701 1.82905V1.83005ZM11.0621 4.22205C10.7091 4.57405 10.4811 4.80405 10.3221 4.99405C10.1711 5.17605 10.1331 5.26405 10.1191 5.31805L8.6701 4.92805C8.7641 4.57805 8.9521 4.29405 9.1701 4.03205C9.3821 3.77805 9.6681 3.49305 10.0011 3.16005L11.0621 4.22005V4.22205ZM10.0021 7.89205C9.6681 7.55905 9.3821 7.27405 9.1701 7.02005C8.9521 6.75805 8.7641 6.47405 8.6701 6.12405L10.1191 5.73505C10.1331 5.78805 10.1711 5.87805 10.3221 6.05905C10.4811 6.24905 10.7091 6.47905 11.0621 6.83205L10.0021 7.89205ZM10.1191 5.31805C10.0825 5.45498 10.0825 5.59811 10.1191 5.73505L8.6701 6.12405C8.56514 5.73263 8.56514 5.31947 8.6701 4.92805L10.1191 5.31805ZM3.7211 14.172L7.0231 17.476L5.9631 18.536L2.6591 15.233L3.7191 14.173L3.7211 14.172ZM14.7321 3.16005L18.0351 6.46405L16.9751 7.52405L13.6721 4.22005L14.7321 3.16005ZM12.9381 18.169L11.8371 17.068L12.8971 16.008L13.9991 17.108L12.9381 18.169ZM16.6081 14.499L15.5081 13.397L16.5681 12.337L17.6691 13.438L16.6091 14.498L16.6081 14.499ZM11.8371 17.068L7.4321 12.663L8.4911 11.603L12.8971 16.008L11.8371 17.068ZM7.4321 12.663L6.3311 11.562L7.3901 10.502L8.49209 11.602L7.4321 12.663ZM15.5071 13.397L11.1031 8.99305L12.1631 7.93205L16.5681 12.337L15.5081 13.397H15.5071ZM11.1031 8.99305L10.0001 7.89005L11.0611 6.83005L12.1621 7.93005L11.1021 8.99205L11.1031 8.99305ZM19.5451 10.093C19.3076 9.85496 19.1741 9.53237 19.1741 9.19605C19.1741 8.85973 19.3076 8.53714 19.5451 8.29905L20.6051 9.35905C20.6266 9.33768 20.6436 9.31228 20.6552 9.2843C20.6668 9.25633 20.6728 9.22634 20.6728 9.19605C20.6728 9.16576 20.6668 9.13576 20.6552 9.10779C20.6436 9.07982 20.6266 9.05442 20.6051 9.03305L19.5451 10.093ZM8.5331 21.106C8.6231 21.196 8.76909 21.197 8.8601 21.107L7.7991 20.047C8.03722 19.8092 8.36003 19.6756 8.6966 19.6756C9.03316 19.6756 9.35497 19.8092 9.5931 20.047L8.5341 21.107L8.5331 21.106Z" fill="white"/>
<path opacity="0.5" d="M12.3669 16.538L16.0369 12.867M7.96191 12.133L11.6329 8.46204" stroke="white" stroke-width="1.5" stroke-linecap="round"/>
</svg>
