<svg width="24" height="25" viewBox="0 0 24 25" fill="none" xmlns="http://www.w3.org/2000/svg">
<mask id="path-1-inside-1_250_318" fill="white">
<path d="M7.0251 17.476C7.16165 17.6176 7.23716 17.8071 7.23536 18.0037C7.23355 18.2003 7.15459 18.3884 7.01547 18.5274C6.87635 18.6664 6.6882 18.7452 6.49155 18.7468C6.2949 18.7484 6.10548 18.6727 5.9641 18.536L7.0251 17.476ZM18.0351 6.46405C18.1088 6.53271 18.1679 6.61551 18.2089 6.70751C18.2499 6.79951 18.2719 6.89882 18.2737 6.99953C18.2755 7.10023 18.2569 7.20026 18.2192 7.29365C18.1815 7.38703 18.1254 7.47187 18.0541 7.54309C17.9829 7.61431 17.8981 7.67045 17.8047 7.70817C17.7113 7.74589 17.6113 7.76442 17.5106 7.76264C17.4099 7.76086 17.3106 7.73882 17.2186 7.69783C17.1266 7.65684 17.0438 7.59773 16.9751 7.52405L18.0351 6.46405ZM16.0361 12.868L16.5671 12.337L16.0371 12.867L16.0361 12.868ZM11.6311 8.46305L12.1621 7.93205L11.6321 8.46205L11.6311 8.46305ZM4.4561 18.576L5.9241 20.044L4.8641 21.104L3.3951 19.637L4.4561 18.576ZM19.5461 6.42205L18.0781 4.95405L19.1381 3.89405L20.6071 5.36105L19.5471 6.42205H19.5461ZM19.5461 8.29805C19.9071 7.93705 20.1241 7.71805 20.2591 7.54105C20.2983 7.49327 20.3316 7.44088 20.3581 7.38505C20.3661 7.36505 20.3651 7.36105 20.3651 7.36005H21.8651C21.8651 7.80505 21.6751 8.15705 21.4521 8.45005C21.2411 8.72705 20.9381 9.02805 20.6071 9.35905L19.5471 8.29805H19.5461ZM20.6071 5.36105C20.9391 5.69205 21.2411 5.99305 21.4521 6.26905C21.6751 6.56305 21.8651 6.91505 21.8651 7.36005H20.3651C20.3651 7.36005 20.3651 7.35505 20.3581 7.33505C20.3316 7.27922 20.2983 7.22683 20.2591 7.17905C20.1241 7.00205 19.9071 6.78305 19.5461 6.42205L20.6061 5.36205L20.6071 5.36105ZM5.9241 20.044C6.2851 20.405 6.5041 20.623 6.6811 20.758C6.72888 20.7973 6.78126 20.8305 6.8371 20.857C6.8571 20.865 6.8611 20.864 6.8621 20.864V22.364C6.4171 22.364 6.0651 22.174 5.7721 21.951C5.4951 21.74 5.1941 21.437 4.8631 21.106L5.9241 20.046V20.044ZM8.8611 21.105C8.5301 21.437 8.2291 21.74 7.9531 21.951C7.6591 22.174 7.3071 22.364 6.8621 22.364V20.864C6.8621 20.864 6.8671 20.864 6.8871 20.857C6.94293 20.8305 6.99532 20.7973 7.0431 20.758C7.2201 20.623 7.4391 20.406 7.8001 20.045L8.8601 21.105H8.8611ZM4.4561 16.701C4.0951 17.062 3.8781 17.281 3.7431 17.458C3.70384 17.5058 3.67059 17.5582 3.6441 17.614C3.6361 17.634 3.6371 17.638 3.6371 17.639H2.1371C2.1371 17.194 2.3271 16.842 2.5501 16.549C2.7611 16.272 3.0641 15.972 3.3951 15.64L4.4561 16.701ZM3.3961 19.638C3.0641 19.306 2.7611 19.006 2.5501 18.73C2.3271 18.436 2.1371 18.084 2.1371 17.639H3.6371C3.6371 17.639 3.6371 17.644 3.6441 17.664C3.67116 17.7196 3.70437 17.7719 3.7431 17.82C3.8781 17.997 4.0951 18.215 4.4561 18.576L3.3951 19.637L3.3961 19.638ZM15.1401 3.89405C15.4721 3.56305 15.7721 3.26005 16.0481 3.04905C16.3421 2.82605 16.6941 2.63605 17.1391 2.63605V4.13605C17.1391 4.13605 17.1341 4.13605 17.1141 4.14305C17.0582 4.16955 17.0059 4.20279 16.9581 4.24205C16.7811 4.37705 16.5621 4.59405 16.2011 4.95505L15.1411 3.89505L15.1401 3.89405ZM18.0781 4.95405C17.7171 4.59405 17.4971 4.37705 17.3201 4.24205C17.2723 4.20279 17.2199 4.16955 17.1641 4.14305C17.1441 4.13505 17.1401 4.13605 17.1391 4.13605V2.63605C17.5841 2.63605 17.9361 2.82605 18.2291 3.04905C18.5061 3.26005 18.8071 3.56305 19.1381 3.89405L18.0781 4.95405ZM9.5941 20.046L10.3281 20.78L9.2681 21.841L8.5331 21.106L9.5931 20.047L9.5941 20.046ZM12.9381 20.78C13.2911 20.428 13.5191 20.198 13.6781 20.008C13.8291 19.826 13.8671 19.737 13.8811 19.683L15.3301 20.073C15.2361 20.423 15.0481 20.707 14.8301 20.969C14.6181 21.223 14.3321 21.508 13.9991 21.841L12.9381 20.78ZM13.9981 17.11C14.3321 17.443 14.6181 17.728 14.8301 17.982C15.0481 18.244 15.2361 18.528 15.3301 18.878L13.8811 19.266C13.8671 19.213 13.8291 19.124 13.6781 18.943C13.5191 18.753 13.2911 18.522 12.9381 18.169L13.9981 17.11ZM13.8811 19.683C13.9177 19.5461 13.9177 19.403 13.8811 19.266L15.3301 18.878C15.4351 19.269 15.4351 19.681 15.3301 20.073L13.8811 19.683ZM14.0001 21.84C13.6661 22.173 13.3811 22.46 13.1271 22.671C12.8651 22.89 12.5811 23.078 12.2311 23.171L11.8431 21.723C11.8961 21.708 11.9851 21.671 12.1671 21.519C12.3571 21.361 12.5871 21.132 12.9391 20.779L13.9991 21.841L14.0001 21.84ZM10.3291 20.78C10.6821 21.132 10.9111 21.36 11.1011 21.52C11.2831 21.67 11.3721 21.708 11.4251 21.723L11.0371 23.171C10.6871 23.078 10.4031 22.89 10.1411 22.671C9.8861 22.459 9.6011 22.174 9.2681 21.841L10.3281 20.78H10.3291ZM12.2311 23.171C11.84 23.2758 11.4282 23.2758 11.0371 23.171L11.4251 21.723C11.562 21.7598 11.7062 21.7598 11.8431 21.723L12.2311 23.171ZM3.7201 11.562C3.46319 11.8094 3.21633 12.0669 2.9801 12.334C2.8301 12.516 2.7921 12.605 2.7781 12.658L1.3281 12.27C1.4221 11.92 1.6101 11.636 1.8281 11.374C2.0411 11.12 2.3271 10.834 2.6601 10.501L3.7201 11.562ZM2.6601 15.232C2.3271 14.899 2.0401 14.615 1.8291 14.36C1.6101 14.098 1.4221 13.814 1.3291 13.464L2.7781 13.076C2.7921 13.129 2.8291 13.218 2.9811 13.4C3.1391 13.59 3.3681 13.82 3.7211 14.172L2.6601 15.232ZM2.7781 12.658C2.74138 12.795 2.74138 12.9391 2.7781 13.076L1.3281 13.464C1.22332 13.0729 1.22332 12.6612 1.3281 12.27L2.7781 12.658ZM2.6601 10.501C2.9931 10.168 3.2781 9.88205 3.5321 9.67105C3.7941 9.45105 4.0781 9.26405 4.4281 9.17105L4.8171 10.619C4.7641 10.633 4.6751 10.671 4.4931 10.822C4.3031 10.981 4.0721 11.209 3.7201 11.562L2.6601 10.501ZM6.3311 11.562C6.08374 11.3052 5.8252 11.0583 5.5581 10.822C5.3771 10.671 5.2881 10.633 5.2351 10.619L5.6231 9.17005C5.9731 9.26405 6.2571 9.45205 6.5191 9.67005C6.7731 9.88205 7.05809 10.168 7.3911 10.501L6.3311 11.562ZM4.4291 9.17005C4.82051 9.06509 5.23168 9.06509 5.6231 9.17005L5.2351 10.619C5.09816 10.5825 4.95403 10.5825 4.8171 10.619L4.4281 9.17105L4.4291 9.17005ZM20.6071 9.03305L21.3411 9.76705L20.2811 10.827L19.5461 10.094L20.6061 9.03405L20.6071 9.03305ZM21.3401 14.5C21.0071 14.833 20.7221 15.119 20.4681 15.33C20.2061 15.55 19.9221 15.737 19.5721 15.83L19.1831 14.382C19.2361 14.368 19.3251 14.33 19.5071 14.179C19.6971 14.02 19.9271 13.792 20.2791 13.439L21.3401 14.499V14.5ZM17.6701 13.439C18.0221 13.792 18.2521 14.02 18.4421 14.179C18.6231 14.33 18.7121 14.368 18.7651 14.382L18.3771 15.831C18.0271 15.737 17.7431 15.549 17.4811 15.331C17.2271 15.119 16.9421 14.833 16.6091 14.5L17.6701 13.439ZM19.5711 15.831C19.18 15.9359 18.7682 15.9359 18.3771 15.831L18.7651 14.382C18.902 14.4187 19.0462 14.4187 19.1831 14.382L19.5721 15.831H19.5711ZM20.2791 13.439C20.6321 13.086 20.8611 12.856 21.0191 12.667C21.1711 12.485 21.2091 12.396 21.2231 12.343L22.6711 12.731C22.5781 13.081 22.3901 13.365 22.1711 13.627C21.9591 13.881 21.6731 14.167 21.3401 14.5L20.2801 13.439H20.2791ZM21.3401 9.76905C21.6731 10.102 21.9601 10.386 22.1711 10.641C22.3901 10.903 22.5781 11.187 22.6711 11.537L21.2231 11.925C21.2081 11.872 21.1711 11.783 21.0191 11.601C20.8611 11.411 20.6321 11.181 20.2791 10.829L21.3401 9.76905ZM21.2231 12.343C21.2598 12.2061 21.2598 12.062 21.2231 11.925L22.6711 11.537C22.7761 11.928 22.7761 12.34 22.6711 12.731L21.2231 12.343ZM10.0001 3.16005C10.3341 2.82705 10.6191 2.54005 10.8731 2.32905C11.1351 2.11005 11.4191 1.92205 11.7691 1.82905L12.1571 3.27805C12.1041 3.29205 12.0151 3.32905 11.8331 3.48105C11.6431 3.63905 11.4131 3.86805 11.0611 4.22105L10.0011 3.16005H10.0001ZM13.6711 4.22005C13.4238 3.96312 13.1663 3.71625 12.8991 3.48005C12.7171 3.33005 12.6281 3.29205 12.5751 3.27805L12.9631 1.82805C13.3131 1.92205 13.5971 2.11005 13.8591 2.32805C14.1141 2.54105 14.3991 2.82705 14.7321 3.16005L13.6721 4.22005H13.6711ZM11.7701 1.83005C12.1612 1.72527 12.573 1.72527 12.9641 1.83005L12.5761 3.27805C12.4392 3.24134 12.295 3.24234 12.1581 3.27905L11.7701 1.82905V1.83005ZM11.0621 4.22205C10.7091 4.57405 10.4811 4.80405 10.3221 4.99405C10.1711 5.17605 10.1331 5.26405 10.1191 5.31805L8.6701 4.92805C8.7641 4.57805 8.9521 4.29405 9.1701 4.03205C9.3821 3.77805 9.6681 3.49305 10.0011 3.16005L11.0621 4.22005V4.22205ZM10.0021 7.89205C9.6681 7.55905 9.3821 7.27405 9.1701 7.02005C8.9521 6.75805 8.7641 6.47405 8.6701 6.12405L10.1191 5.73505C10.1331 5.78805 10.1711 5.87805 10.3221 6.05905C10.4811 6.24905 10.7091 6.47905 11.0621 6.83205L10.0021 7.89205ZM10.1191 5.31805C10.0825 5.45498 10.0825 5.59811 10.1191 5.73505L8.6701 6.12405C8.56514 5.73263 8.56514 5.31947 8.6701 4.92805L10.1191 5.31805ZM3.7211 14.172L7.0231 17.476L5.9631 18.536L2.6591 15.233L3.7191 14.173L3.7211 14.172ZM14.7321 3.16005L18.0351 6.46405L16.9751 7.52405L13.6721 4.22005L14.7321 3.16005ZM12.9381 18.169L11.8371 17.068L12.8971 16.008L13.9991 17.108L12.9381 18.169ZM16.6081 14.499L15.5081 13.397L16.5681 12.337L17.6691 13.438L16.6091 14.498L16.6081 14.499ZM11.8371 17.068L7.4321 12.663L8.4911 11.603L12.8971 16.008L11.8371 17.068ZM7.4321 12.663L6.3311 11.562L7.3901 10.502L8.49209 11.602L7.4321 12.663ZM15.5071 13.397L11.1031 8.99305L12.1631 7.93205L16.5681 12.337L15.5081 13.397H15.5071ZM11.1031 8.99305L10.0001 7.89005L11.0611 6.83005L12.1621 7.93005L11.1021 8.99205L11.1031 8.99305ZM19.5451 10.093C19.3076 9.85496 19.1741 9.53237 19.1741 9.19605C19.1741 8.85973 19.3076 8.53714 19.5451 8.29905L20.6051 9.35905C20.6266 9.33768 20.6436 9.31228 20.6552 9.2843C20.6668 9.25633 20.6728 9.22634 20.6728 9.19605C20.6728 9.16576 20.6668 9.13576 20.6552 9.10779C20.6436 9.07982 20.6266 9.05442 20.6051 9.03305L19.5451 10.093ZM8.5331 21.106C8.6231 21.196 8.76909 21.197 8.8601 21.107L7.7991 20.047C8.03722 19.8092 8.36003 19.6756 8.6966 19.6756C9.03316 19.6756 9.35497 19.8092 9.5931 20.047L8.5341 21.107L8.5331 21.106Z"/>
</mask>
<path d="M7.0251 17.476C7.16165 17.6176 7.23716 17.8071 7.23536 18.0037C7.23355 18.2003 7.15459 18.3884 7.01547 18.5274C6.87635 18.6664 6.6882 18.7452 6.49155 18.7468C6.2949 18.7484 6.10548 18.6727 5.9641 18.536L7.0251 17.476ZM18.0351 6.46405C18.1088 6.53271 18.1679 6.61551 18.2089 6.70751C18.2499 6.79951 18.2719 6.89882 18.2737 6.99953C18.2755 7.10023 18.2569 7.20026 18.2192 7.29365C18.1815 7.38703 18.1254 7.47187 18.0541 7.54309C17.9829 7.61431 17.8981 7.67045 17.8047 7.70817C17.7113 7.74589 17.6113 7.76442 17.5106 7.76264C17.4099 7.76086 17.3106 7.73882 17.2186 7.69783C17.1266 7.65684 17.0438 7.59773 16.9751 7.52405L18.0351 6.46405ZM16.0361 12.868L16.5671 12.337L16.0371 12.867L16.0361 12.868ZM11.6311 8.46305L12.1621 7.93205L11.6321 8.46205L11.6311 8.46305ZM4.4561 18.576L5.9241 20.044L4.8641 21.104L3.3951 19.637L4.4561 18.576ZM19.5461 6.42205L18.0781 4.95405L19.1381 3.89405L20.6071 5.36105L19.5471 6.42205H19.5461ZM19.5461 8.29805C19.9071 7.93705 20.1241 7.71805 20.2591 7.54105C20.2983 7.49327 20.3316 7.44088 20.3581 7.38505C20.3661 7.36505 20.3651 7.36105 20.3651 7.36005H21.8651C21.8651 7.80505 21.6751 8.15705 21.4521 8.45005C21.2411 8.72705 20.9381 9.02805 20.6071 9.35905L19.5471 8.29805H19.5461ZM20.6071 5.36105C20.9391 5.69205 21.2411 5.99305 21.4521 6.26905C21.6751 6.56305 21.8651 6.91505 21.8651 7.36005H20.3651C20.3651 7.36005 20.3651 7.35505 20.3581 7.33505C20.3316 7.27922 20.2983 7.22683 20.2591 7.17905C20.1241 7.00205 19.9071 6.78305 19.5461 6.42205L20.6061 5.36205L20.6071 5.36105ZM5.9241 20.044C6.2851 20.405 6.5041 20.623 6.6811 20.758C6.72888 20.7973 6.78126 20.8305 6.8371 20.857C6.8571 20.865 6.8611 20.864 6.8621 20.864V22.364C6.4171 22.364 6.0651 22.174 5.7721 21.951C5.4951 21.74 5.1941 21.437 4.8631 21.106L5.9241 20.046V20.044ZM8.8611 21.105C8.5301 21.437 8.2291 21.74 7.9531 21.951C7.6591 22.174 7.3071 22.364 6.8621 22.364V20.864C6.8621 20.864 6.8671 20.864 6.8871 20.857C6.94293 20.8305 6.99532 20.7973 7.0431 20.758C7.2201 20.623 7.4391 20.406 7.8001 20.045L8.8601 21.105H8.8611ZM4.4561 16.701C4.0951 17.062 3.8781 17.281 3.7431 17.458C3.70384 17.5058 3.67059 17.5582 3.6441 17.614C3.6361 17.634 3.6371 17.638 3.6371 17.639H2.1371C2.1371 17.194 2.3271 16.842 2.5501 16.549C2.7611 16.272 3.0641 15.972 3.3951 15.64L4.4561 16.701ZM3.3961 19.638C3.0641 19.306 2.7611 19.006 2.5501 18.73C2.3271 18.436 2.1371 18.084 2.1371 17.639H3.6371C3.6371 17.639 3.6371 17.644 3.6441 17.664C3.67116 17.7196 3.70437 17.7719 3.7431 17.82C3.8781 17.997 4.0951 18.215 4.4561 18.576L3.3951 19.637L3.3961 19.638ZM15.1401 3.89405C15.4721 3.56305 15.7721 3.26005 16.0481 3.04905C16.3421 2.82605 16.6941 2.63605 17.1391 2.63605V4.13605C17.1391 4.13605 17.1341 4.13605 17.1141 4.14305C17.0582 4.16955 17.0059 4.20279 16.9581 4.24205C16.7811 4.37705 16.5621 4.59405 16.2011 4.95505L15.1411 3.89505L15.1401 3.89405ZM18.0781 4.95405C17.7171 4.59405 17.4971 4.37705 17.3201 4.24205C17.2723 4.20279 17.2199 4.16955 17.1641 4.14305C17.1441 4.13505 17.1401 4.13605 17.1391 4.13605V2.63605C17.5841 2.63605 17.9361 2.82605 18.2291 3.04905C18.5061 3.26005 18.8071 3.56305 19.1381 3.89405L18.0781 4.95405ZM9.5941 20.046L10.3281 20.78L9.2681 21.841L8.5331 21.106L9.5931 20.047L9.5941 20.046ZM12.9381 20.78C13.2911 20.428 13.5191 20.198 13.6781 20.008C13.8291 19.826 13.8671 19.737 13.8811 19.683L15.3301 20.073C15.2361 20.423 15.0481 20.707 14.8301 20.969C14.6181 21.223 14.3321 21.508 13.9991 21.841L12.9381 20.78ZM13.9981 17.11C14.3321 17.443 14.6181 17.728 14.8301 17.982C15.0481 18.244 15.2361 18.528 15.3301 18.878L13.8811 19.266C13.8671 19.213 13.8291 19.124 13.6781 18.943C13.5191 18.753 13.2911 18.522 12.9381 18.169L13.9981 17.11ZM13.8811 19.683C13.9177 19.5461 13.9177 19.403 13.8811 19.266L15.3301 18.878C15.4351 19.269 15.4351 19.681 15.3301 20.073L13.8811 19.683ZM14.0001 21.84C13.6661 22.173 13.3811 22.46 13.1271 22.671C12.8651 22.89 12.5811 23.078 12.2311 23.171L11.8431 21.723C11.8961 21.708 11.9851 21.671 12.1671 21.519C12.3571 21.361 12.5871 21.132 12.9391 20.779L13.9991 21.841L14.0001 21.84ZM10.3291 20.78C10.6821 21.132 10.9111 21.36 11.1011 21.52C11.2831 21.67 11.3721 21.708 11.4251 21.723L11.0371 23.171C10.6871 23.078 10.4031 22.89 10.1411 22.671C9.8861 22.459 9.6011 22.174 9.2681 21.841L10.3281 20.78H10.3291ZM12.2311 23.171C11.84 23.2758 11.4282 23.2758 11.0371 23.171L11.4251 21.723C11.562 21.7598 11.7062 21.7598 11.8431 21.723L12.2311 23.171ZM3.7201 11.562C3.46319 11.8094 3.21633 12.0669 2.9801 12.334C2.8301 12.516 2.7921 12.605 2.7781 12.658L1.3281 12.27C1.4221 11.92 1.6101 11.636 1.8281 11.374C2.0411 11.12 2.3271 10.834 2.6601 10.501L3.7201 11.562ZM2.6601 15.232C2.3271 14.899 2.0401 14.615 1.8291 14.36C1.6101 14.098 1.4221 13.814 1.3291 13.464L2.7781 13.076C2.7921 13.129 2.8291 13.218 2.9811 13.4C3.1391 13.59 3.3681 13.82 3.7211 14.172L2.6601 15.232ZM2.7781 12.658C2.74138 12.795 2.74138 12.9391 2.7781 13.076L1.3281 13.464C1.22332 13.0729 1.22332 12.6612 1.3281 12.27L2.7781 12.658ZM2.6601 10.501C2.9931 10.168 3.2781 9.88205 3.5321 9.67105C3.7941 9.45105 4.0781 9.26405 4.4281 9.17105L4.8171 10.619C4.7641 10.633 4.6751 10.671 4.4931 10.822C4.3031 10.981 4.0721 11.209 3.7201 11.562L2.6601 10.501ZM6.3311 11.562C6.08374 11.3052 5.8252 11.0583 5.5581 10.822C5.3771 10.671 5.2881 10.633 5.2351 10.619L5.6231 9.17005C5.9731 9.26405 6.2571 9.45205 6.5191 9.67005C6.7731 9.88205 7.05809 10.168 7.3911 10.501L6.3311 11.562ZM4.4291 9.17005C4.82051 9.06509 5.23168 9.06509 5.6231 9.17005L5.2351 10.619C5.09816 10.5825 4.95403 10.5825 4.8171 10.619L4.4281 9.17105L4.4291 9.17005ZM20.6071 9.03305L21.3411 9.76705L20.2811 10.827L19.5461 10.094L20.6061 9.03405L20.6071 9.03305ZM21.3401 14.5C21.0071 14.833 20.7221 15.119 20.4681 15.33C20.2061 15.55 19.9221 15.737 19.5721 15.83L19.1831 14.382C19.2361 14.368 19.3251 14.33 19.5071 14.179C19.6971 14.02 19.9271 13.792 20.2791 13.439L21.3401 14.499V14.5ZM17.6701 13.439C18.0221 13.792 18.2521 14.02 18.4421 14.179C18.6231 14.33 18.7121 14.368 18.7651 14.382L18.3771 15.831C18.0271 15.737 17.7431 15.549 17.4811 15.331C17.2271 15.119 16.9421 14.833 16.6091 14.5L17.6701 13.439ZM19.5711 15.831C19.18 15.9359 18.7682 15.9359 18.3771 15.831L18.7651 14.382C18.902 14.4187 19.0462 14.4187 19.1831 14.382L19.5721 15.831H19.5711ZM20.2791 13.439C20.6321 13.086 20.8611 12.856 21.0191 12.667C21.1711 12.485 21.2091 12.396 21.2231 12.343L22.6711 12.731C22.5781 13.081 22.3901 13.365 22.1711 13.627C21.9591 13.881 21.6731 14.167 21.3401 14.5L20.2801 13.439H20.2791ZM21.3401 9.76905C21.6731 10.102 21.9601 10.386 22.1711 10.641C22.3901 10.903 22.5781 11.187 22.6711 11.537L21.2231 11.925C21.2081 11.872 21.1711 11.783 21.0191 11.601C20.8611 11.411 20.6321 11.181 20.2791 10.829L21.3401 9.76905ZM21.2231 12.343C21.2598 12.2061 21.2598 12.062 21.2231 11.925L22.6711 11.537C22.7761 11.928 22.7761 12.34 22.6711 12.731L21.2231 12.343ZM10.0001 3.16005C10.3341 2.82705 10.6191 2.54005 10.8731 2.32905C11.1351 2.11005 11.4191 1.92205 11.7691 1.82905L12.1571 3.27805C12.1041 3.29205 12.0151 3.32905 11.8331 3.48105C11.6431 3.63905 11.4131 3.86805 11.0611 4.22105L10.0011 3.16005H10.0001ZM13.6711 4.22005C13.4238 3.96312 13.1663 3.71625 12.8991 3.48005C12.7171 3.33005 12.6281 3.29205 12.5751 3.27805L12.9631 1.82805C13.3131 1.92205 13.5971 2.11005 13.8591 2.32805C14.1141 2.54105 14.3991 2.82705 14.7321 3.16005L13.6721 4.22005H13.6711ZM11.7701 1.83005C12.1612 1.72527 12.573 1.72527 12.9641 1.83005L12.5761 3.27805C12.4392 3.24134 12.295 3.24234 12.1581 3.27905L11.7701 1.82905V1.83005ZM11.0621 4.22205C10.7091 4.57405 10.4811 4.80405 10.3221 4.99405C10.1711 5.17605 10.1331 5.26405 10.1191 5.31805L8.6701 4.92805C8.7641 4.57805 8.9521 4.29405 9.1701 4.03205C9.3821 3.77805 9.6681 3.49305 10.0011 3.16005L11.0621 4.22005V4.22205ZM10.0021 7.89205C9.6681 7.55905 9.3821 7.27405 9.1701 7.02005C8.9521 6.75805 8.7641 6.47405 8.6701 6.12405L10.1191 5.73505C10.1331 5.78805 10.1711 5.87805 10.3221 6.05905C10.4811 6.24905 10.7091 6.47905 11.0621 6.83205L10.0021 7.89205ZM10.1191 5.31805C10.0825 5.45498 10.0825 5.59811 10.1191 5.73505L8.6701 6.12405C8.56514 5.73263 8.56514 5.31947 8.6701 4.92805L10.1191 5.31805ZM3.7211 14.172L7.0231 17.476L5.9631 18.536L2.6591 15.233L3.7191 14.173L3.7211 14.172ZM14.7321 3.16005L18.0351 6.46405L16.9751 7.52405L13.6721 4.22005L14.7321 3.16005ZM12.9381 18.169L11.8371 17.068L12.8971 16.008L13.9991 17.108L12.9381 18.169ZM16.6081 14.499L15.5081 13.397L16.5681 12.337L17.6691 13.438L16.6091 14.498L16.6081 14.499ZM11.8371 17.068L7.4321 12.663L8.4911 11.603L12.8971 16.008L11.8371 17.068ZM7.4321 12.663L6.3311 11.562L7.3901 10.502L8.49209 11.602L7.4321 12.663ZM15.5071 13.397L11.1031 8.99305L12.1631 7.93205L16.5681 12.337L15.5081 13.397H15.5071ZM11.1031 8.99305L10.0001 7.89005L11.0611 6.83005L12.1621 7.93005L11.1021 8.99205L11.1031 8.99305ZM19.5451 10.093C19.3076 9.85496 19.1741 9.53237 19.1741 9.19605C19.1741 8.85973 19.3076 8.53714 19.5451 8.29905L20.6051 9.35905C20.6266 9.33768 20.6436 9.31228 20.6552 9.2843C20.6668 9.25633 20.6728 9.22634 20.6728 9.19605C20.6728 9.16576 20.6668 9.13576 20.6552 9.10779C20.6436 9.07982 20.6266 9.05442 20.6051 9.03305L19.5451 10.093ZM8.5331 21.106C8.6231 21.196 8.76909 21.197 8.8601 21.107L7.7991 20.047C8.03722 19.8092 8.36003 19.6756 8.6966 19.6756C9.03316 19.6756 9.35497 19.8092 9.5931 20.047L8.5341 21.107L8.5331 21.106Z" fill="white"/>
<path d="M10.3281 20.78L10.6818 21.1334L9.97454 20.4265L10.3281 20.78ZM13.8811 19.683L14.0105 19.2001L13.7511 20.1659L13.8811 19.683ZM4.8171 10.619L4.33422 10.7488L5.30006 10.4896L4.8171 10.619ZM5.6231 9.17005L6.1061 9.29929L5.14011 9.04072L5.6231 9.17005ZM8.6701 4.92805L8.79996 4.44521L8.54014 5.41087L8.6701 4.92805ZM10.1191 5.73505L10.2487 6.21795L9.98968 5.25209L10.1191 5.73505ZM4.27765 19.4606L4.80765 18.9306L4.10054 18.2235L3.57054 18.7535L4.27765 19.4606ZM5.03954 20.2225L4.50954 20.7525L5.21665 21.4596L5.74665 20.9296L5.03954 20.2225ZM8.70954 20.2225L8.17954 20.7525L8.88665 21.4596L9.41665 20.9296L8.70954 20.2225ZM10.1516 21.6636L10.6816 21.1336L9.97454 20.4265L9.44454 20.9565L10.1516 21.6636ZM14.7345 19.3941L14.0105 19.2001L13.7517 20.166L14.4757 20.36L14.7345 19.3941ZM13.1145 17.2855L12.5845 17.8155L13.2916 18.5226L13.8216 17.9926L13.1145 17.2855ZM14.4757 18.5881L13.7517 18.7821L14.0105 19.748L14.7345 19.554L14.4757 18.5881ZM12.5191 22.3176L12.3251 21.5936L11.3591 21.8525L11.5531 22.5765L12.5191 22.3176ZM11.7131 22.5765L11.9071 21.8525L10.9411 21.5936L10.7471 22.3176L11.7131 22.5765ZM1.92385 12.9471L2.64885 13.1411L2.90734 12.175L2.18234 11.981L1.92385 12.9471ZM2.83654 14.3485L2.30654 14.8785L3.01365 15.5856L3.54365 15.0556L2.83654 14.3485ZM1.92368 12.7871L1.19968 12.9811L1.45851 13.947L2.18251 13.753L1.92368 12.7871ZM4.14013 10.0245L4.33413 10.7485L5.30006 10.4896L5.10606 9.76564L4.14013 10.0245ZM6.50754 10.6785L5.97754 11.2085L6.68465 11.9156L7.21465 11.3856L6.50754 10.6785ZM5.9121 10.0243L6.1061 9.29929L5.14009 9.0408L4.94609 9.7658L5.9121 10.0243ZM19.8601 14.9756L19.6661 14.2516L18.7001 14.5105L18.8941 15.2345L19.8601 14.9756ZM16.7855 13.6145L16.2555 14.1445L16.9626 14.8516L17.4926 14.3216L16.7855 13.6145ZM19.0541 15.2345L19.2481 14.5105L18.2821 14.2516L18.0881 14.9756L19.0541 15.2345ZM22.0765 12.0531L21.3525 11.8591L21.0937 12.825L21.8177 13.019L22.0765 12.0531ZM21.8177 11.2471L21.0937 11.4411L21.3525 12.407L22.0765 12.213L21.8177 11.2471ZM12.4471 2.42364L12.2531 1.69964L11.2871 1.95846L11.4811 2.68246L12.4471 2.42364ZM13.8485 3.3365L13.3185 3.8665L14.0256 4.5736L14.5556 4.0436L13.8485 3.3365ZM12.2871 2.4238L12.0931 3.1488L13.0591 3.40729L13.2531 2.68229L12.2871 2.4238ZM9.52496 4.64021L8.79996 4.44521L8.54023 5.41089L9.26523 5.60589L9.52496 4.64021ZM10.1785 7.00749L9.64854 7.53749L10.3556 8.2446L10.8856 7.7146L10.1785 7.00749ZM9.52451 6.41201L10.2485 6.21801L9.98968 5.25209L9.26568 5.44609L9.52451 6.41201ZM17.3286 7.8776L18.3886 6.8176L17.6815 6.1105L16.6215 7.1705L17.3286 7.8776ZM12.7196 16.8916L13.2496 16.3616L12.5425 15.6545L12.0125 16.1845L12.7196 16.8916ZM8.31465 12.4866L8.84465 11.9566L8.13754 11.2495L7.60754 11.7795L8.31465 12.4866ZM3.74865 19.9906L4.80965 18.9296L4.10254 18.2225L3.04154 19.2835L3.74865 19.9906ZM18.4316 5.3076L19.4916 4.2476L18.7845 3.54049L17.7245 4.60049L18.4316 5.3076ZM20.3651 7.86005H21.8651V6.86005H20.3651V7.86005ZM6.3621 20.864V22.364H7.3621V20.864H6.3621ZM3.6371 17.139H2.1371V18.139H3.6371V17.139ZM16.6391 2.63605V4.13605H17.6391V2.63605H16.6391ZM9.97438 20.4267L8.91438 21.4877L9.62181 22.1944L10.6818 21.1334L9.97438 20.4267ZM13.7511 20.1659L15.2001 20.5559L15.46 19.5902L14.011 19.2002L13.7511 20.1659ZM15.2008 18.3951L13.7518 18.7831L14.0104 19.749L15.4594 19.361L15.2008 18.3951ZM12.7141 23.0416L12.3261 21.5936L11.3601 21.8525L11.7481 23.3005L12.7141 23.0416ZM10.9421 21.5936L10.5541 23.0416L11.5201 23.3005L11.9081 21.8525L10.9421 21.5936ZM2.90734 12.175L1.45734 11.787L1.19885 12.7531L2.64885 13.1411L2.90734 12.175ZM2.30638 10.8544L3.36638 11.9154L4.07382 11.2087L3.01382 10.1477L2.30638 10.8544ZM3.94522 9.30077L4.33422 10.7488L5.29997 10.4893L4.91097 9.04132L3.94522 9.30077ZM5.71808 10.7484L6.10608 9.29938L5.14011 9.04072L4.75211 10.4897L5.71808 10.7484ZM18.2821 14.2527L17.8941 15.7017L18.8601 15.9604L19.2481 14.5114L18.2821 14.2527ZM21.0937 12.826L22.5417 13.214L22.8005 12.2481L21.3525 11.8601L21.0937 12.826ZM22.5417 11.0541L21.0937 11.4421L21.3525 12.408L22.8005 12.02L22.5417 11.0541ZM14.3785 2.80649L13.3185 3.86649L14.0256 4.5736L15.0856 3.5136L14.3785 2.80649ZM10.249 4.83523L8.80005 4.44523L8.54014 5.41087L9.98915 5.80087L10.249 4.83523ZM8.79974 6.60695L10.2487 6.21795L9.98946 5.25215L8.54046 5.64115L8.79974 6.60695ZM12.1906 17.4216L13.2506 16.3616L12.5435 15.6545L11.4835 16.7145L12.1906 17.4216ZM15.8616 13.7506L16.9216 12.6906L16.2145 11.9835L15.1545 13.0435L15.8616 13.7506ZM4.8631 21.106L4.15632 20.3986L3.44855 21.1057L4.15599 21.8132L4.8631 21.106ZM8.5331 21.106L7.82632 20.3986L7.11855 21.1057L7.82599 21.8132L8.5331 21.106ZM10.3281 20.78L9.62099 21.4872L9.91388 21.78H10.3281V20.78ZM13.8811 19.683L12.915 19.4247L12.9131 19.4321L13.8811 19.683ZM2.7781 12.658L3.74398 12.917L3.74493 12.9134L2.7781 12.658ZM2.6601 15.232L1.95299 15.9392L2.65976 16.6459L3.36687 15.9395L2.6601 15.232ZM1.3291 13.464L1.07044 12.4981L0.106321 12.7562L0.362632 13.7209L1.3291 13.464ZM4.8171 10.619L5.07249 11.5859L5.07512 11.5852L4.8171 10.619ZM6.3311 11.562L5.61076 12.2557L5.61731 12.2625L5.62399 12.2692L6.3311 11.562ZM5.6231 9.17005L5.88248 8.20427L5.88209 8.20417L5.6231 9.17005ZM16.6091 14.498L15.902 13.7909V13.7909L16.6091 14.498ZM11.7701 1.82905L12.7361 1.57056L10.7701 1.82905H11.7701ZM13.6721 4.22005L14.3793 3.51305L14.0864 3.22005H13.6721V4.22005ZM12.5761 3.27805L12.3171 4.24393L13.2832 4.50296L13.542 3.53687L12.5761 3.27805ZM8.6701 4.92805L7.70432 4.66867L7.70422 4.66905L8.6701 4.92805ZM10.1191 5.73505L11.0859 5.47966L11.0852 5.47702L10.1191 5.73505ZM7.0251 17.476L7.74471 16.7817L7.03816 16.0494L6.31832 16.7686L7.0251 17.476ZM5.9641 18.536L5.25732 17.8286L4.53748 18.5478L5.26904 19.255L5.9641 18.536ZM18.0351 6.46405L17.3279 7.17105L17.3404 7.18358L17.3534 7.19566L18.0351 6.46405ZM16.9751 7.52405L17.7067 6.84233L17.6947 6.82947L17.6823 6.81705L16.9751 7.52405ZM16.0361 12.868L15.329 12.1609L16.7429 13.5755L16.0361 12.868ZM16.0371 12.867L16.7439 13.5745L16.7442 13.5742L16.0371 12.867ZM8.4911 11.603L9.19812 10.8959L8.49068 10.1886L7.78366 10.8963L8.4911 11.603ZM11.6311 8.46305L10.924 7.75594L12.338 9.17032L11.6311 8.46305ZM11.6321 8.46205L12.339 9.16932L12.3392 9.16915L11.6321 8.46205ZM4.4561 18.576L5.1632 17.8689L4.4561 18.576ZM4.8641 21.104L4.15747 21.8116L4.86458 22.5178L5.5712 21.8112L4.8641 21.104ZM3.3951 19.637L4.10172 18.9295L2.68748 20.3436L3.3951 19.637ZM18.0781 4.95405L18.7852 4.24694L18.7842 4.24596L18.0781 4.95405ZM19.1381 3.89405L18.431 4.60116L18.4315 4.60164L19.1381 3.89405ZM19.5471 6.42205V7.42205H19.9616L20.2545 7.12882L19.5471 6.42205ZM19.5461 8.29805L18.839 7.59094L17.1319 9.29805H19.5461V8.29805ZM20.2591 7.54105L19.4862 6.90657L19.4748 6.92038L19.464 6.9346L20.2591 7.54105ZM20.3581 7.38505L21.2613 7.81427L21.2748 7.78575L21.2866 7.75644L20.3581 7.38505ZM20.3651 7.36005L19.3651 7.36004V7.36005H20.3651ZM21.4521 8.45005L22.2476 9.056L22.2478 9.05568L21.4521 8.45005ZM20.6071 9.35905L19.8997 10.0658L20.6068 10.7736L21.3142 10.0662L20.6071 9.35905ZM19.5471 8.29805L20.2545 7.59128L19.9616 7.29805H19.5471V8.29805ZM21.4521 6.26905L22.2488 5.66472L22.2465 5.66171L21.4521 6.26905ZM20.3581 7.33505L21.302 7.0047L21.2843 6.95417L21.2613 6.90583L20.3581 7.33505ZM20.2591 7.17905L19.464 7.7855L19.4748 7.79971L19.4862 7.81353L20.2591 7.17905ZM20.6061 5.36205L21.3132 6.06916L21.3134 6.06899L20.6061 5.36205ZM6.6811 20.758L7.31558 19.9851L7.30176 19.9738L7.28754 19.9629L6.6811 20.758ZM6.8371 20.857L6.40788 21.7602L6.43639 21.7738L6.4657 21.7855L6.8371 20.857ZM6.8621 20.864L6.8621 19.864H6.8621V20.864ZM5.7721 21.951L5.16614 22.7465L5.16646 22.7468L5.7721 21.951ZM5.9241 20.046L6.63087 20.7535L6.9241 20.4605V20.046H5.9241ZM8.8611 21.105L9.56927 21.8111L11.2702 20.105H8.8611V21.105ZM7.9531 21.951L8.55743 22.7478L8.56044 22.7455L7.9531 21.951ZM6.8871 20.857L7.21745 21.8009L7.26789 21.7833L7.31617 21.7603L6.8871 20.857ZM7.0431 20.758L6.43665 19.9629L6.42237 19.9738L6.40849 19.9852L7.0431 20.758ZM7.8001 20.045L8.5072 19.3379L7.8001 18.6308L7.09299 19.3379L7.8001 20.045ZM8.8601 21.105L8.15299 21.8122L8.44588 22.105H8.8601V21.105ZM4.4561 16.701L5.1632 17.4082L5.87031 16.701L5.1632 15.9939L4.4561 16.701ZM3.7431 17.458L4.51562 18.093L4.52718 18.079L4.53822 18.0645L3.7431 17.458ZM3.6441 17.614L2.74062 17.1854L2.72722 17.2136L2.71562 17.2427L3.6441 17.614ZM3.6371 17.639L4.6371 17.6391V17.639H3.6371ZM2.5501 16.549L1.7546 15.9431L1.75435 15.9434L2.5501 16.549ZM3.3951 15.64L4.1022 14.9329L3.39403 14.2248L2.68692 14.934L3.3951 15.64ZM3.3961 19.638L2.68899 20.3452L4.10371 18.9314L3.3961 19.638ZM2.5501 18.73L1.75335 19.3344L1.75566 19.3374L2.5501 18.73ZM3.6441 17.664L2.70024 17.9944L2.71956 18.0496L2.7452 18.1022L3.6441 17.664ZM3.7431 17.82L4.53822 17.2136L4.53038 17.2033L4.52229 17.1933L3.7431 17.82ZM15.1401 3.89405L14.4341 3.18588L13.725 3.89281L14.4328 4.60099L15.1401 3.89405ZM16.0481 3.04905L15.4438 2.25231L15.4408 2.25461L16.0481 3.04905ZM17.1391 4.13605L17.1391 5.13605H17.1391V4.13605ZM17.1141 4.14305L16.7837 3.19919L16.7335 3.21677L16.6855 3.23957L17.1141 4.14305ZM16.9581 4.24205L17.5645 5.03717L17.579 5.02613L17.5931 5.01457L16.9581 4.24205ZM16.2011 4.95505L15.494 5.66216L16.2011 6.36926L16.9082 5.66216L16.2011 4.95505ZM15.1411 3.89505L14.4338 4.60199L14.434 4.60216L15.1411 3.89505ZM17.3201 4.24205L16.6851 5.01457L16.6992 5.02613L16.7136 5.03717L17.3201 4.24205ZM17.1641 4.14305L17.5927 3.23957L17.5645 3.22618L17.5355 3.21457L17.1641 4.14305ZM18.2291 3.04905L18.8351 2.25355L18.8347 2.2533L18.2291 3.04905ZM9.5941 20.046L10.3012 19.3389L9.59342 18.6312L8.88631 19.3396L9.5941 20.046ZM9.2681 21.841L9.9752 21.1339L9.2681 21.841ZM9.5931 20.047L10.3005 20.7538L10.3009 20.7535L9.5931 20.047ZM12.9381 20.78L12.232 20.0719L11.5229 20.779L12.231 21.4872L12.9381 20.78ZM13.6781 20.008L14.445 20.6498L14.4477 20.6466L13.6781 20.008ZM15.3301 20.073L16.2959 20.3324L16.296 20.3318L15.3301 20.073ZM14.8301 20.969L15.5978 21.6098L15.5988 21.6087L14.8301 20.969ZM13.9991 21.841L13.292 22.5482L13.9988 23.2549L14.7059 22.5485L13.9991 21.841ZM13.9981 17.11L14.7041 16.4019L13.9974 15.6972L13.2913 16.4026L13.9981 17.11ZM14.8301 17.982L15.5988 17.3424L15.5978 17.3413L14.8301 17.982ZM15.3301 18.878L16.2959 18.6187L16.2959 18.6187L15.3301 18.878ZM13.8811 19.266L12.9143 19.5214L12.915 19.5244L13.8811 19.266ZM13.6781 18.943L14.446 18.3024L14.445 18.3013L13.6781 18.943ZM14.0001 21.84L14.7069 22.5475L13.294 21.1319L14.0001 21.84ZM13.1271 22.671L12.4881 21.9018L12.4858 21.9038L13.1271 22.671ZM12.2311 23.171L11.9743 22.2046L11.9724 22.2051L12.2311 23.171ZM11.8431 21.723L12.1021 22.689L12.1154 22.6853L11.8431 21.723ZM12.1671 21.519L11.5277 20.7502L11.5261 20.7515L12.1671 21.519ZM12.9391 20.779L13.6469 20.0726L12.9388 19.3632L12.231 20.0729L12.9391 20.779ZM10.3291 20.78L11.0352 20.0719L10.7425 19.78H10.3291V20.78ZM11.1011 21.52L10.4569 22.285L10.4651 22.2917L11.1011 21.52ZM11.4251 21.723L11.1527 22.6853L11.1661 22.6889L11.4251 21.723ZM11.0371 23.171L11.2958 22.2051L11.2939 22.2046L11.0371 23.171ZM10.1411 22.671L10.7824 21.9038L10.7804 21.9021L10.1411 22.671ZM3.7201 11.562L4.41365 12.2825L4.421 12.2754L4.4282 12.2682L3.7201 11.562ZM2.9801 12.334L2.23099 11.6716L2.21947 11.6846L2.20841 11.698L2.9801 12.334ZM1.3281 12.27L0.36232 12.0107L0.362158 12.0113L1.3281 12.27ZM1.8281 11.374L1.06185 10.7315L1.05939 10.7344L1.8281 11.374ZM1.8291 14.36L2.59955 13.7225L2.59636 13.7187L1.8291 14.36ZM2.7781 13.076L3.74494 12.8207L3.74398 12.8171L2.7781 13.076ZM2.9811 13.4L3.74998 12.7607L3.74862 12.759L2.9811 13.4ZM3.7211 14.172L4.42842 13.4652L4.4272 13.4639L3.7211 14.172ZM1.3281 13.464L0.362158 13.7228L0.620859 14.6885L1.58659 14.4301L1.3281 13.464ZM3.5321 9.67105L4.1711 10.4403L4.17515 10.4369L3.5321 9.67105ZM4.4281 9.17105L4.6849 10.1375L4.94482 10.0684L5.13503 9.87832L4.4281 9.17105ZM4.4931 10.822L3.85457 10.0524L3.85132 10.0552L4.4931 10.822ZM5.5581 10.822L6.22063 10.073L6.2098 10.0634L6.1987 10.0542L5.5581 10.822ZM5.2351 10.619L4.97707 11.5852L4.9797 11.5859L5.2351 10.619ZM6.5191 9.67005L7.15987 8.90232L7.1587 8.90135L6.5191 9.67005ZM7.3911 10.501L8.09854 11.2078L8.80498 10.5007L8.0982 9.79394L7.3911 10.501ZM4.4291 9.17005L4.1701 8.20417L3.91151 8.27351L3.72216 8.46277L4.4291 9.17005ZM20.6071 9.03305L21.3142 8.32594L20.6068 7.6185L19.8997 8.32628L20.6071 9.03305ZM21.3411 9.76705L22.0482 10.4742L22.7553 9.76705L22.0482 9.05994L21.3411 9.76705ZM20.2811 10.827L19.575 11.5351L20.2821 12.2403L20.9882 11.5342L20.2811 10.827ZM19.5461 10.094L18.839 9.38694L18.1309 10.095L18.84 10.8021L19.5461 10.094ZM20.6061 9.03405L21.3132 9.74116L21.3135 9.74082L20.6061 9.03405ZM20.4681 15.33L19.8291 14.5608L19.825 14.5642L20.4681 15.33ZM19.5721 15.83L18.6063 16.0895L18.8651 17.0526L19.8289 16.7965L19.5721 15.83ZM19.1831 14.382L18.9277 13.4152L18.9248 13.416L19.1831 14.382ZM19.5071 14.179L20.1456 14.9487L20.1489 14.9459L19.5071 14.179ZM20.2791 13.439L19.572 12.7319L19.571 12.7329L20.2791 13.439ZM21.3401 14.499H22.3401V14.0846L22.0469 13.7916L21.3401 14.499ZM17.6701 13.439L18.3782 12.7329L17.6711 12.0238L16.963 12.7319L17.6701 13.439ZM18.4421 14.179L17.8003 14.9459L17.8015 14.9469L18.4421 14.179ZM18.7651 14.382L19.0234 13.416L19.0205 13.4152L18.7651 14.382ZM18.3771 15.831L18.1177 16.7968L18.1182 16.797L18.3771 15.831ZM17.4811 15.331L16.8403 16.0988L16.8415 16.0998L17.4811 15.331ZM16.6091 14.5L15.902 13.7929L15.1949 14.5L15.902 15.2072L16.6091 14.5ZM19.5711 15.831V14.831H19.4394L19.3122 14.8651L19.5711 15.831ZM19.5721 15.831V16.831H20.876L20.5379 15.5718L19.5721 15.831ZM21.0191 12.667L21.7863 13.3084L21.7866 13.3081L21.0191 12.667ZM21.2231 12.343L20.2572 12.0841L20.2563 12.0877L21.2231 12.343ZM22.6711 12.731L21.7053 12.4717L21.7046 12.4742L22.6711 12.731ZM22.1711 13.627L21.4038 12.9857L21.4034 12.9863L22.1711 13.627ZM20.2801 13.439L20.9875 12.7323L20.6946 12.439H20.2801V13.439ZM21.3401 9.76905L22.0472 9.06194L21.3404 8.35517L20.6333 9.06161L21.3401 9.76905ZM22.1711 10.641L21.4006 11.2786L21.4038 11.2824L22.1711 10.641ZM22.6711 11.537L21.7046 11.7939L21.7053 11.7964L22.6711 11.537ZM21.2231 11.925L22.1891 11.666L22.1853 11.6527L21.2231 11.925ZM21.0191 11.601L20.2502 12.2404L20.2516 12.2421L21.0191 11.601ZM20.2791 10.829L19.5723 10.1216L18.8635 10.8297L19.573 11.5372L20.2791 10.829ZM10.0001 3.16005L9.29405 2.45188L7.58075 4.16005H10.0001V3.16005ZM10.8731 2.32905L11.5121 3.09827L11.5144 3.09631L10.8731 2.32905ZM11.7691 1.82905L12.7351 1.57039L12.4769 0.606274L11.5123 0.862585L11.7691 1.82905ZM12.1571 3.27805L12.4125 4.24489L13.3826 3.98863L13.1231 3.01939L12.1571 3.27805ZM11.8331 3.48105L12.4725 4.24993L12.4741 4.24858L11.8331 3.48105ZM11.0611 4.22105L10.3537 4.92782L11.0618 5.6366L11.7692 4.92715L11.0611 4.22105ZM10.0011 3.16005L10.7079 2.45261L10.415 2.16005H10.0011V3.16005ZM13.6711 4.22005L12.9506 4.91353L13.2457 5.22005H13.6711V4.22005ZM12.8991 3.48005L13.5615 2.73087L13.5485 2.71939L13.5351 2.70836L12.8991 3.48005ZM12.5751 3.27805L11.6091 3.01956L11.3498 3.98867L12.3197 4.24489L12.5751 3.27805ZM12.9631 1.82805L13.2225 0.862273L12.2558 0.602655L11.9971 1.56956L12.9631 1.82805ZM13.8591 2.32805L14.5002 1.56057L14.4987 1.55935L13.8591 2.32805ZM14.7321 3.16005L15.4393 2.45305L15.4392 2.45294L14.7321 3.16005ZM11.7701 1.83005H10.7701V3.13322L12.0289 2.79599L11.7701 1.83005ZM12.9641 1.83005L13.93 2.08887L14.1889 1.1229L13.2229 0.864111L12.9641 1.83005ZM12.1581 3.27905L11.1921 3.53754L11.4507 4.50405L12.4171 4.24493L12.1581 3.27905ZM11.0621 4.22205L11.7682 4.93016L12.0621 4.63709V4.22205H11.0621ZM10.3221 4.99405L9.55519 4.35227L9.55249 4.35553L10.3221 4.99405ZM10.1191 5.31805L11.0853 5.57608L11.0871 5.56901L10.1191 5.31805ZM9.1701 4.03205L8.40237 3.39127L8.40139 3.39244L9.1701 4.03205ZM11.0621 4.22005H12.0621V3.80556L11.7689 3.51261L11.0621 4.22005ZM10.0021 7.89205L9.29605 8.60021L10.0032 9.3052L10.7092 8.59915L10.0021 7.89205ZM9.1701 7.02005L8.40139 7.65966L8.40237 7.66083L9.1701 7.02005ZM8.6701 6.12405L7.70422 6.38304L7.70432 6.38343L8.6701 6.12405ZM10.3221 6.05905L9.55422 6.69965L9.5552 6.70082L10.3221 6.05905ZM11.0621 6.83205L11.7692 7.53915L12.4763 6.83205L11.7692 6.12494L11.0621 6.83205ZM7.0231 17.476L7.7302 18.1832L8.4371 17.4763L7.73042 16.7692L7.0231 17.476ZM5.9631 18.536L5.2561 19.2433L5.9632 19.9502L6.6702 19.2432L5.9631 18.536ZM2.6591 15.233L1.95199 14.5259L1.24477 15.2332L1.9521 15.9403L2.6591 15.233ZM3.7191 14.173L3.27171 13.2787L3.12667 13.3513L3.01199 13.4659L3.7191 14.173ZM11.8371 17.068L11.13 17.7752L11.8371 17.068ZM12.8971 16.008L12.1901 16.7152L12.1906 16.7158L12.8971 16.008ZM13.9991 17.108L14.7062 17.8152L15.414 17.1074L14.7056 16.4003L13.9991 17.108ZM16.6081 14.499L15.9003 15.2055L16.6075 15.9139L17.3152 15.2062L16.6081 14.499ZM15.5081 13.397L16.2158 12.6906L15.9228 12.397H15.5081V13.397ZM16.5681 12.337L17.2752 11.6299L16.5681 12.337ZM17.6691 13.438L18.3762 14.1452L19.0833 13.438L18.3762 12.7309L17.6691 13.438ZM7.3901 10.502L8.09656 9.7943L7.38912 9.08814L6.68265 9.79528L7.3901 10.502ZM8.49209 11.602L9.19954 12.3088L9.90662 11.6011L9.19856 10.8943L8.49209 11.602ZM15.5071 13.397L14.8 14.1042L15.0929 14.397H15.5071V13.397ZM11.1031 8.99305L10.396 9.70015L11.1031 8.99305ZM12.1631 7.93205L12.8702 7.22494L12.1628 6.5175L11.4557 7.22528L12.1631 7.93205ZM10.0001 7.89005L9.29332 7.18261L8.58555 7.88971L9.29299 8.59715L10.0001 7.89005ZM11.0611 6.83005L11.7679 6.12262L11.0611 5.41649L10.3543 6.12261L11.0611 6.83005ZM12.1621 7.93005L12.8699 8.63649L13.576 7.92906L12.8689 7.22262L12.1621 7.93005ZM11.1021 8.99205L10.3943 8.28561L9.68888 8.99238L10.3947 9.69882L11.1021 8.99205ZM19.5451 10.093L18.8372 10.7993L19.5443 11.5081L20.2522 10.8002L19.5451 10.093ZM19.5451 8.29905L20.2522 7.59194L19.5443 6.88403L18.8372 7.59275L19.5451 8.29905ZM20.6051 9.35905L19.898 10.0662L20.6035 10.7717L21.3106 10.0677L20.6051 9.35905ZM20.6051 9.03305L21.3106 8.32435L20.6035 7.62042L19.898 8.32594L20.6051 9.03305ZM8.8601 21.107L9.56328 21.8181L10.2786 21.1106L9.56687 20.3996L8.8601 21.107ZM7.7991 20.047L7.0924 19.3395L6.38413 20.047L7.09232 20.7545L7.7991 20.047ZM8.5341 21.107L7.82733 21.8145L8.53477 22.5213L9.24154 21.8138L8.5341 21.107ZM6.30548 18.1704C6.25997 18.1233 6.2348 18.0601 6.2354 17.9945L8.23531 18.0129C8.23952 17.554 8.06333 17.1119 7.74471 16.7817L6.30548 18.1704ZM6.2354 17.9945C6.236 17.929 6.26232 17.8663 6.30869 17.82L7.72224 19.2348C8.04686 18.9105 8.23111 18.4717 8.23531 18.0129L6.2354 17.9945ZM6.30869 17.82C6.35507 17.7736 6.41778 17.7474 6.48333 17.7468L6.49976 19.7468C6.95861 19.743 7.39762 19.5592 7.72224 19.2348L6.30869 17.82ZM6.48333 17.7468C6.54889 17.7463 6.61202 17.7715 6.65915 17.8171L5.26904 19.255C5.59894 19.5739 6.04091 19.7505 6.49976 19.7468L6.48333 17.7468ZM6.67087 19.2435L7.73187 18.1835L6.31832 16.7686L5.25732 17.8286L6.67087 19.2435ZM17.3534 7.19566C17.3288 7.17277 17.3091 7.14517 17.2954 7.11451L19.1223 6.30051C19.0267 6.08585 18.8888 5.89265 18.7168 5.73244L17.3534 7.19566ZM17.2954 7.11451C17.2818 7.08385 17.2744 7.05074 17.2738 7.01717L19.2735 6.98188C19.2694 6.7469 19.218 6.51517 19.1223 6.30051L17.2954 7.11451ZM17.2738 7.01717C17.2733 6.98359 17.2794 6.95025 17.292 6.91913L19.1464 7.66817C19.2344 7.45027 19.2777 7.21687 19.2735 6.98188L17.2738 7.01717ZM17.292 6.91913C17.3046 6.888 17.3233 6.85972 17.347 6.83598L18.7612 8.25019C18.9274 8.08401 19.0584 7.88606 19.1464 7.66817L17.292 6.91913ZM17.347 6.83598C17.3708 6.81224 17.399 6.79352 17.4302 6.78095L18.1792 8.63539C18.3971 8.54737 18.5951 8.41637 18.7612 8.25019L17.347 6.83598ZM17.4302 6.78095C17.4613 6.76838 17.4946 6.7622 17.5282 6.76279L17.4929 8.76248C17.7279 8.76663 17.9613 8.72341 18.1792 8.63539L17.4302 6.78095ZM17.5282 6.76279C17.5618 6.76339 17.5949 6.77073 17.6256 6.7844L16.8116 8.61126C17.0262 8.70691 17.258 8.75834 17.4929 8.76248L17.5282 6.76279ZM17.6256 6.7844C17.6562 6.79806 17.6838 6.81776 17.7067 6.84233L16.2435 8.20577C16.4037 8.37771 16.5969 8.51561 16.8116 8.61126L17.6256 6.7844ZM16.7432 13.5752L17.2742 13.0442L15.86 11.6299L15.329 12.1609L16.7432 13.5752ZM15.86 11.6299L15.33 12.1599L16.7442 13.5742L17.2742 13.0442L15.86 11.6299ZM15.3303 12.1596L15.3293 12.1606L16.7429 13.5755L16.7439 13.5745L15.3303 12.1596ZM12.3382 9.17016L12.8692 8.63916L11.455 7.22494L10.924 7.75594L12.3382 9.17016ZM11.455 7.22494L10.925 7.75494L12.3392 9.16915L12.8692 8.63915L11.455 7.22494ZM10.9252 7.75477L10.9242 7.75577L12.338 9.17032L12.339 9.16932L10.9252 7.75477ZM3.74899 19.2832L5.21699 20.7512L6.6312 19.3369L5.1632 17.8689L3.74899 19.2832ZM5.21699 19.3369L4.15699 20.3969L5.5712 21.8112L6.6312 20.7512L5.21699 19.3369ZM5.57072 20.3965L4.10172 18.9295L2.68847 20.3446L4.15747 21.8116L5.57072 20.3965ZM20.2532 5.71494L18.7852 4.24694L17.371 5.66116L18.839 7.12916L20.2532 5.71494ZM18.4315 4.60164L19.9005 6.06864L21.3137 4.65346L19.8447 3.18646L18.4315 4.60164ZM19.8997 4.65428L18.8397 5.71527L20.2545 7.12882L21.3145 6.06782L19.8997 4.65428ZM19.5471 5.42205H19.5461V7.42205H19.5471V5.42205ZM20.2532 9.00515C20.5924 8.66591 20.8686 8.39091 21.0542 8.1475L19.464 6.9346C19.3796 7.04519 19.2217 7.20818 18.839 7.59094L20.2532 9.00515ZM21.032 8.17553C21.1229 8.06488 21.1999 7.94356 21.2613 7.81427L19.4549 6.95583C19.4633 6.9382 19.4738 6.92166 19.4862 6.90657L21.032 8.17553ZM21.2866 7.75644C21.3018 7.71825 21.3265 7.65174 21.3439 7.56803C21.3533 7.52238 21.3619 7.46528 21.3644 7.39927C21.3657 7.36528 21.3651 7.3359 21.364 7.31264C21.3636 7.30445 21.3629 7.29427 21.3633 7.30011C21.3634 7.30131 21.3638 7.30788 21.3641 7.31625C21.3645 7.32455 21.3651 7.34027 21.3651 7.36005H19.3651C19.3651 7.37989 19.3657 7.39568 19.3661 7.40405C19.3664 7.4125 19.3668 7.41915 19.3669 7.42044C19.3673 7.42645 19.3667 7.41648 19.3663 7.40854C19.3652 7.38576 19.3646 7.35702 19.3658 7.32386C19.3683 7.2595 19.3766 7.20484 19.3853 7.16282C19.4012 7.08635 19.4223 7.03185 19.4296 7.01366L21.2866 7.75644ZM20.8651 7.36005C20.8651 7.49718 20.8135 7.638 20.6564 7.84441L22.2478 9.05568C22.5367 8.6761 22.8651 8.11291 22.8651 7.36005H20.8651ZM20.6566 7.84409C20.4958 8.05516 20.2497 8.30222 19.9 8.65194L21.3142 10.0662C21.6265 9.75387 21.9864 9.39894 22.2476 9.056L20.6566 7.84409ZM21.3145 8.65228L20.2545 7.59128L18.8397 9.00482L19.8997 10.0658L21.3145 8.65228ZM19.5471 7.29805H19.5461V9.29805H19.5471V7.29805ZM19.9011 6.06922C20.2494 6.41651 20.4964 6.66544 20.6577 6.87639L22.2465 5.66171C21.9858 5.32065 21.6288 4.96759 21.3131 4.65288L19.9011 6.06922ZM20.6554 6.87338C20.8135 7.08191 20.8651 7.22293 20.8651 7.36005H22.8651C22.8651 6.60716 22.5367 6.04419 22.2488 5.66472L20.6554 6.87338ZM20.3651 7.36005C21.3651 7.36005 21.3651 7.35937 21.3651 7.35869C21.3651 7.35846 21.3651 7.35778 21.3651 7.35733C21.3651 7.35643 21.3651 7.35553 21.3651 7.35463C21.3651 7.35283 21.3651 7.35105 21.365 7.34928C21.365 7.34575 21.3649 7.34226 21.3649 7.33883C21.3647 7.33197 21.3645 7.32531 21.3642 7.31885C21.3637 7.30595 21.363 7.29374 21.3621 7.28226C21.3603 7.25942 21.3579 7.23866 21.3553 7.22031C21.3503 7.18415 21.3439 7.15286 21.3381 7.12782C21.3267 7.079 21.3132 7.03695 21.302 7.0047L19.4142 7.6654C19.41 7.65315 19.4 7.62359 19.3904 7.58227C19.3854 7.56099 19.3795 7.5322 19.3746 7.4976C19.3722 7.48003 19.3698 7.45981 19.3681 7.43733C19.3672 7.42603 19.3665 7.41394 19.3659 7.40112C19.3657 7.3947 19.3655 7.38807 19.3653 7.38123C19.3652 7.37781 19.3652 7.37434 19.3652 7.37081C19.3651 7.36904 19.3651 7.36726 19.3651 7.36547C19.3651 7.36457 19.3651 7.36367 19.3651 7.36277C19.3651 7.36231 19.3651 7.36163 19.3651 7.36141C19.3651 7.36072 19.3651 7.36004 20.3651 7.36005ZM21.2613 6.90583C21.1999 6.77654 21.1229 6.65522 21.032 6.54457L19.4862 7.81353C19.4738 7.79843 19.4633 7.78189 19.4549 7.76427L21.2613 6.90583ZM21.0542 6.5726C20.8686 6.32919 20.5924 6.05418 20.2532 5.71494L18.839 7.12915C19.2217 7.51191 19.3796 7.67491 19.464 7.7855L21.0542 6.5726ZM20.2532 7.12916L21.3132 6.06916L19.899 4.65494L18.839 5.71494L20.2532 7.12916ZM21.3134 6.06899L21.3144 6.06799L19.8998 4.65411L19.8988 4.65511L21.3134 6.06899ZM5.21699 20.7512C5.55457 21.0887 5.83083 21.3672 6.07465 21.5532L7.28754 19.9629C7.17736 19.8789 7.01562 19.7214 6.6312 19.3369L5.21699 20.7512ZM6.04661 21.531C6.15725 21.6218 6.27857 21.6988 6.40788 21.7602L7.26631 19.9538C7.28396 19.9622 7.3005 19.9727 7.31558 19.9851L6.04661 21.531ZM6.4657 21.7855C6.5039 21.8008 6.5704 21.8255 6.65412 21.8428C6.69976 21.8523 6.75686 21.8609 6.82287 21.8634C6.85686 21.8647 6.88624 21.864 6.9095 21.8629C6.91769 21.8625 6.92787 21.8619 6.92204 21.8622C6.92083 21.8623 6.91427 21.8627 6.90589 21.8631C6.8976 21.8635 6.88188 21.864 6.8621 21.864V19.864C6.84225 19.864 6.82646 19.8646 6.8181 19.865C6.80964 19.8654 6.803 19.8658 6.8017 19.8659C6.79569 19.8662 6.80566 19.8656 6.81361 19.8652C6.83638 19.8641 6.86512 19.8635 6.89828 19.8648C6.96264 19.8672 7.0173 19.8756 7.05932 19.8843C7.13579 19.9001 7.19029 19.9213 7.20849 19.9286L6.4657 21.7855ZM6.8621 21.364C6.72496 21.364 6.58414 21.3124 6.37773 21.1553L5.16646 22.7468C5.54605 23.0357 6.10923 23.364 6.8621 23.364V21.364ZM6.37805 21.1556C6.16698 20.9948 5.91992 20.7487 5.5702 20.3989L4.15599 21.8132C4.46827 22.1254 4.82321 22.4853 5.16614 22.7465L6.37805 21.1556ZM5.56987 21.8135L6.63087 20.7535L5.21732 19.3386L4.15632 20.3986L5.56987 21.8135ZM6.9241 20.046V20.044H4.9241V20.046H6.9241ZM8.15292 20.399C7.80433 20.7487 7.55632 20.9956 7.34575 21.1566L8.56044 22.7455C8.90187 22.4845 9.25586 22.1254 9.56927 21.8111L8.15292 20.399ZM7.34877 21.1543C7.14024 21.3125 6.99921 21.364 6.8621 21.364V23.364C7.61498 23.364 8.17795 23.0356 8.55742 22.7478L7.34877 21.1543ZM6.8621 20.864C6.86209 21.864 6.86277 21.864 6.86345 21.864C6.86368 21.864 6.86436 21.864 6.86481 21.864C6.86572 21.864 6.86662 21.864 6.86752 21.864C6.86931 21.864 6.87109 21.864 6.87286 21.864C6.8764 21.864 6.87988 21.8639 6.88331 21.8638C6.89017 21.8637 6.89683 21.8635 6.90329 21.8632C6.91619 21.8627 6.92841 21.8619 6.93989 21.861C6.96272 21.8592 6.98348 21.8568 7.00183 21.8543C7.038 21.8492 7.06929 21.8429 7.09432 21.837C7.14314 21.8256 7.1852 21.8122 7.21745 21.8009L6.55675 19.9132C6.56899 19.9089 6.59855 19.899 6.63987 19.8893C6.66115 19.8844 6.68995 19.8784 6.72455 19.8736C6.74211 19.8711 6.76233 19.8688 6.78481 19.867C6.79611 19.8662 6.80821 19.8654 6.82102 19.8649C6.82744 19.8646 6.83407 19.8644 6.84091 19.8643C6.84433 19.8642 6.84781 19.8641 6.85134 19.8641C6.8531 19.8641 6.85488 19.8641 6.85668 19.8641C6.85757 19.8641 6.85847 19.8641 6.85938 19.8641C6.85983 19.864 6.86051 19.864 6.86074 19.864C6.86142 19.864 6.8621 19.864 6.8621 20.864ZM7.31617 21.7603C7.44558 21.6988 7.56699 21.6218 7.6777 21.5309L6.40849 19.9852C6.42365 19.9728 6.44028 19.9622 6.45802 19.9538L7.31617 21.7603ZM7.64954 21.5532C7.89295 21.3675 8.16796 21.0914 8.5072 20.7522L7.09299 19.3379C6.71023 19.7207 6.54724 19.8786 6.43665 19.9629L7.64954 21.5532ZM7.09299 20.7522L8.15299 21.8122L9.5672 20.3979L8.5072 19.3379L7.09299 20.7522ZM8.8601 22.105H8.8611V20.105H8.8601V22.105ZM3.74899 15.9939C3.40974 16.3332 3.13362 16.6082 2.94797 16.8516L4.53822 18.0645C4.62257 17.9539 4.78045 17.7909 5.1632 17.4082L3.74899 15.9939ZM2.97057 16.8231C2.87939 16.934 2.80216 17.0557 2.74062 17.1854L4.54757 18.0427C4.53902 18.0607 4.52829 18.0776 4.51562 18.093L2.97057 16.8231ZM2.71562 17.2427C2.70034 17.2808 2.67566 17.3473 2.65834 17.4311C2.64889 17.4767 2.64027 17.5338 2.63778 17.5998C2.63649 17.6338 2.6371 17.6632 2.63822 17.6865C2.63861 17.6946 2.63925 17.7048 2.6389 17.699C2.63883 17.6978 2.63842 17.6912 2.63806 17.6828C2.63769 17.6746 2.6371 17.6588 2.6371 17.639H4.6371C4.6371 17.6192 4.6365 17.6034 4.63613 17.595C4.63576 17.5866 4.63535 17.5799 4.63527 17.5787C4.63491 17.5726 4.63554 17.5826 4.63592 17.5906C4.63701 17.6133 4.6376 17.6421 4.63635 17.6752C4.63392 17.7396 4.62555 17.7943 4.61686 17.8363C4.60103 17.9127 4.57985 17.9672 4.57257 17.9854L2.71562 17.2427ZM3.1371 17.639C3.1371 17.5019 3.18874 17.3611 3.34584 17.1547L1.75435 15.9434C1.46545 16.323 1.1371 16.8862 1.1371 17.639H3.1371ZM3.34559 17.155C3.50644 16.9439 3.7513 16.6991 4.10327 16.3461L2.68692 14.934C2.37689 15.245 2.01575 15.6002 1.7546 15.9431L3.34559 17.155ZM2.68799 16.3472L3.74899 17.4082L5.1632 15.9939L4.1022 14.9329L2.68799 16.3472ZM4.1032 18.9309C3.75132 18.5791 3.50557 18.3333 3.34453 18.1227L1.75566 19.3374C2.01662 19.6788 2.37687 20.033 2.68899 20.3452L4.1032 18.9309ZM3.34683 18.1257C3.18866 17.9172 3.1371 17.7762 3.1371 17.639H1.1371C1.1371 18.3919 1.46553 18.9549 1.75336 19.3344L3.34683 18.1257ZM3.6371 17.639C2.6371 17.639 2.6371 17.6397 2.6371 17.6404C2.6371 17.6406 2.6371 17.6413 2.6371 17.6418C2.6371 17.6427 2.63711 17.6436 2.63711 17.6445C2.63712 17.6463 2.63713 17.648 2.63715 17.6498C2.63719 17.6534 2.63725 17.6568 2.63732 17.6603C2.63747 17.6671 2.63768 17.6738 2.63794 17.6802C2.63847 17.6931 2.63923 17.7054 2.64012 17.7168C2.6419 17.7397 2.64429 17.7604 2.64686 17.7788C2.65193 17.815 2.65829 17.8462 2.66413 17.8713C2.67552 17.9201 2.68895 17.9622 2.70024 17.9944L4.58795 17.3337C4.59224 17.3459 4.60217 17.3755 4.61181 17.4168C4.61678 17.4381 4.6227 17.4669 4.62755 17.5015C4.63001 17.5191 4.63235 17.5393 4.6341 17.5618C4.63498 17.5731 4.63572 17.5852 4.63625 17.598C4.63651 17.6044 4.63673 17.611 4.63687 17.6179C4.63694 17.6213 4.637 17.6248 4.63704 17.6283C4.63706 17.6301 4.63707 17.6318 4.63708 17.6336C4.63709 17.6345 4.63709 17.6354 4.63709 17.6363C4.63709 17.6368 4.63709 17.6375 4.63709 17.6377C4.6371 17.6384 4.6371 17.6391 3.6371 17.639ZM2.7452 18.1022C2.805 18.2249 2.87836 18.3405 2.96391 18.4468L4.52229 17.1933C4.53038 17.2033 4.53733 17.2143 4.543 17.2259L2.7452 18.1022ZM2.94797 18.4265C3.13392 18.6703 3.41134 18.9455 3.74899 19.2832L5.1632 17.8689C4.77885 17.4846 4.62227 17.3238 4.53822 17.2136L2.94797 18.4265ZM2.68748 20.3436L2.68848 20.3447L4.10371 18.9314L4.10271 18.9304L2.68748 20.3436ZM15.8461 4.60222C16.199 4.25039 16.4444 4.00485 16.6554 3.84349L15.4408 2.25461C15.0998 2.51525 14.7452 2.87571 14.4341 3.18588L15.8461 4.60222ZM16.6524 3.84578C16.861 3.68761 17.002 3.63605 17.1391 3.63605V1.63605C16.3862 1.63605 15.8232 1.96448 15.4438 2.25231L16.6524 3.84578ZM17.1391 4.13605C17.1391 3.13605 17.1384 3.13605 17.1377 3.13605C17.1375 3.13605 17.1368 3.13605 17.1364 3.13605C17.1355 3.13605 17.1346 3.13606 17.1337 3.13606C17.1319 3.13607 17.1301 3.13609 17.1283 3.13611C17.1248 3.13614 17.1213 3.1362 17.1179 3.13627C17.111 3.13642 17.1044 3.13663 17.0979 3.1369C17.085 3.13743 17.0728 3.13818 17.0613 3.13907C17.0385 3.14085 17.0177 3.14325 16.9994 3.14582C16.9632 3.15088 16.9319 3.15724 16.9069 3.16308C16.858 3.17447 16.816 3.1879 16.7837 3.19919L17.4444 5.08691C17.4322 5.09119 17.4026 5.10112 17.3613 5.11076C17.34 5.11573 17.3113 5.12165 17.2767 5.1265C17.2591 5.12896 17.2389 5.1313 17.2164 5.13305C17.2051 5.13393 17.193 5.13468 17.1802 5.1352C17.1738 5.13547 17.1671 5.13568 17.1603 5.13582C17.1569 5.1359 17.1534 5.13595 17.1499 5.13599C17.1481 5.13601 17.1463 5.13602 17.1445 5.13603C17.1436 5.13604 17.1427 5.13604 17.1418 5.13604C17.1414 5.13605 17.1407 5.13605 17.1405 5.13605C17.1398 5.13605 17.1391 5.13605 17.1391 4.13605ZM16.6855 3.23957C16.5557 3.30112 16.434 3.37835 16.3231 3.46952L17.5931 5.01457C17.5777 5.02724 17.5608 5.03797 17.5427 5.04653L16.6855 3.23957ZM16.3516 3.44693C16.1082 3.63258 15.8332 3.9087 15.494 4.24794L16.9082 5.66216C17.291 5.2794 17.454 5.12152 17.5645 5.03717L16.3516 3.44693ZM16.9082 4.24794L15.8482 3.18794L14.434 4.60216L15.494 5.66216L16.9082 4.24794ZM15.8484 3.18811L15.8474 3.18711L14.4328 4.60099L14.4338 4.60199L15.8484 3.18811ZM18.7842 4.24596C18.4441 3.90681 18.1691 3.63193 17.9265 3.44693L16.7136 5.03717C16.8251 5.12217 16.9901 5.28129 17.372 5.66214L18.7842 4.24596ZM17.9551 3.46952C17.8442 3.37835 17.7225 3.30112 17.5927 3.23957L16.7355 5.04653C16.7174 5.03797 16.7005 5.02724 16.6851 5.01457L17.9551 3.46952ZM17.5355 3.21457C17.4973 3.1993 17.4308 3.17461 17.3471 3.15729C17.3014 3.14784 17.2443 3.13922 17.1783 3.13673C17.1443 3.13545 17.1149 3.13605 17.0917 3.13717C17.0835 3.13756 17.0733 3.1382 17.0792 3.13785C17.0804 3.13778 17.0869 3.13738 17.0953 3.13701C17.1036 3.13665 17.1193 3.13605 17.1391 3.13605V5.13605C17.1589 5.13605 17.1747 5.13545 17.1831 5.13508C17.1916 5.13471 17.1982 5.13431 17.1995 5.13423C17.2055 5.13386 17.1955 5.13449 17.1876 5.13487C17.1648 5.13596 17.1361 5.13656 17.1029 5.13531C17.0385 5.13288 16.9839 5.1245 16.9419 5.11581C16.8654 5.09999 16.8109 5.0788 16.7927 5.07152L17.5355 3.21457ZM17.1391 3.63605C17.2762 3.63605 17.417 3.68769 17.6235 3.84479L18.8347 2.2533C18.4551 1.96441 17.892 1.63605 17.1391 1.63605V3.63605ZM17.6231 3.84455C17.8342 4.00532 18.0813 4.25143 18.431 4.60116L19.8452 3.18694C19.5329 2.87466 19.178 2.51477 18.8351 2.25355L17.6231 3.84455ZM8.88699 20.7532L9.62099 21.4872L11.0352 20.0729L10.3012 19.3389L8.88699 20.7532ZM9.9752 21.1339L9.2402 20.3989L7.82599 21.8132L8.56099 22.5482L9.9752 21.1339ZM9.23987 21.8135L10.2999 20.7545L8.88632 19.3396L7.82632 20.3986L9.23987 21.8135ZM10.3009 20.7535L10.3019 20.7525L8.88631 19.3396L8.88532 19.3406L10.3009 20.7535ZM13.6442 21.4882C13.9863 21.147 14.2508 20.8819 14.445 20.6498L12.9112 19.3663C12.7874 19.5142 12.5959 19.7091 12.232 20.0719L13.6442 21.4882ZM14.4477 20.6466C14.6397 20.4152 14.782 20.193 14.8491 19.934L12.9131 19.4321C12.9211 19.4011 12.9313 19.3711 12.9428 19.3437C12.9536 19.3179 12.9629 19.3011 12.9667 19.2945C12.9704 19.2882 12.9692 19.291 12.9597 19.3042C12.9503 19.3173 12.9341 19.3387 12.9085 19.3695L14.4477 20.6466ZM14.3643 19.8137C14.3234 19.9661 14.2353 20.1205 14.0614 20.3294L15.5988 21.6087C15.8609 21.2936 16.1488 20.88 16.2959 20.3324L14.3643 19.8137ZM14.0624 20.3283C13.8858 20.5398 13.6375 20.7885 13.292 21.1339L14.7062 22.5482C15.0267 22.2276 15.3503 21.9063 15.5978 21.6098L14.0624 20.3283ZM14.7062 21.1339L13.6452 20.0729L12.231 21.4872L13.292 22.5482L14.7062 21.1339ZM13.292 17.8182C13.6376 18.1627 13.8862 18.4117 14.0624 18.6228L15.5978 17.3413C15.35 17.0444 15.0266 16.7234 14.7041 16.4019L13.292 17.8182ZM14.0614 18.6217C14.2353 18.8306 14.3234 18.985 14.3643 19.1374L16.2959 18.6187C16.1488 18.0711 15.8609 17.6575 15.5988 17.3424L14.0614 18.6217ZM14.8479 19.0107C14.7804 18.7551 14.6393 18.5342 14.446 18.3024L12.9102 19.5837C12.9356 19.6141 12.9517 19.6352 12.961 19.648C12.9703 19.661 12.9715 19.6637 12.9678 19.6575C12.9639 19.6508 12.9547 19.6342 12.9439 19.6088C12.9325 19.5817 12.9223 19.5521 12.9143 19.5214L14.8479 19.0107ZM14.445 18.3013C14.2515 18.07 13.988 17.8048 13.6452 17.4619L12.231 18.8762C12.5942 19.2393 12.7867 19.4361 12.9112 19.5848L14.445 18.3013ZM13.6449 18.8765L14.7049 17.8175L13.2913 16.4026L12.2313 17.4616L13.6449 18.8765ZM14.8471 19.9414C14.929 19.6352 14.929 19.3139 14.8471 19.0077L12.915 19.5244C12.9064 19.4921 12.9064 19.457 12.915 19.4247L14.8471 19.9414ZM14.3643 19.1374C14.4236 19.3583 14.4238 19.5916 14.3641 19.8143L16.296 20.3318C16.4464 19.7705 16.4466 19.1798 16.2959 18.6187L14.3643 19.1374ZM13.294 21.1319C12.9449 21.48 12.6985 21.7271 12.4881 21.9018L13.7661 23.4403C14.0637 23.193 14.3873 22.8661 14.7061 22.5482L13.294 21.1319ZM12.4858 21.9038C12.2777 22.0777 12.1247 22.1646 11.9743 22.2046L12.4879 24.1375C13.0375 23.9915 13.4525 23.7024 13.7684 23.4383L12.4858 21.9038ZM12.1154 22.6853C12.3537 22.6178 12.567 22.4879 12.8081 22.2866L11.5261 20.7515C11.4958 20.7768 11.4748 20.7928 11.4621 20.8019C11.4494 20.8111 11.4467 20.8123 11.4527 20.8087C11.4593 20.8049 11.4747 20.7964 11.4981 20.7864C11.5097 20.7815 11.5221 20.7767 11.5352 20.7721C11.5484 20.7675 11.5605 20.7638 11.5708 20.7608L12.1154 22.6853ZM12.8065 22.2879C13.0406 22.0932 13.3082 21.8251 13.6472 21.4851L12.231 20.0729C11.866 20.439 11.6736 20.6289 11.5277 20.7502L12.8065 22.2879ZM12.2313 21.4855L13.2913 22.5475L14.7069 21.1346L13.6469 20.0726L12.2313 21.4855ZM14.7059 22.5485L14.7069 22.5475L13.2933 21.1326L13.2923 21.1336L14.7059 22.5485ZM9.62299 21.4882C9.9626 21.8268 10.2269 22.0912 10.457 22.285L11.7452 20.7551C11.5953 20.6289 11.4016 20.4373 11.0352 20.0719L9.62299 21.4882ZM10.4651 22.2917C10.7006 22.4859 10.9134 22.6175 11.1528 22.6853L11.6974 20.7608C11.7091 20.7642 11.722 20.7682 11.7355 20.7729C11.7489 20.7776 11.7614 20.7825 11.7727 20.7874C11.7955 20.7972 11.8101 20.8053 11.8155 20.8085C11.8204 20.8114 11.8167 20.8096 11.8032 20.7998C11.7896 20.7901 11.768 20.7738 11.7371 20.7484L10.4651 22.2917ZM11.2939 22.2046C11.1435 22.1646 10.9905 22.0777 10.7824 21.9038L9.49976 23.4383C9.81571 23.7024 10.2307 23.9915 10.7803 24.1375L11.2939 22.2046ZM10.7804 21.9021C10.5685 21.7259 10.3195 21.4783 9.9752 21.1339L8.56099 22.5482C8.88268 22.8698 9.2037 23.1922 9.5018 23.44L10.7804 21.9021ZM10.3281 21.78H10.3291V19.78H10.3281V21.78ZM11.9724 22.2051C11.7508 22.2644 11.5174 22.2644 11.2958 22.2051L10.7784 24.137C11.339 24.2871 11.9292 24.2871 12.4898 24.137L11.9724 22.2051ZM11.1661 22.6889C11.4727 22.7711 11.7955 22.7711 12.1021 22.6889L11.5841 20.7572C11.6169 20.7484 11.6513 20.7484 11.6841 20.7572L11.1661 22.6889ZM3.02654 10.8416C2.75036 11.1075 2.48496 11.3844 2.23099 11.6716L3.7292 12.9965C3.9477 12.7494 4.17603 12.5112 4.41365 12.2825L3.02654 10.8416ZM2.20841 11.698C2.01783 11.9293 1.87823 12.1491 1.81126 12.4027L3.74493 12.9134C3.74114 12.9278 3.73667 12.9428 3.73145 12.9582C3.72627 12.9734 3.72092 12.9873 3.71564 12.9998C3.7051 13.0248 3.69623 13.0408 3.69271 13.0469C3.6894 13.0526 3.69088 13.0493 3.70048 13.0359C3.71006 13.0225 3.72631 13.001 3.75178 12.9701L2.20841 11.698ZM2.29387 12.5294C2.33482 12.377 2.42291 12.2226 2.5968 12.0137L1.05939 10.7344C0.797284 11.0495 0.509371 11.4631 0.36232 12.0107L2.29387 12.5294ZM2.59433 12.0166C2.77297 11.8036 3.02336 11.552 3.3672 11.2082L1.95299 9.79394C1.63083 10.1161 1.30922 10.4365 1.06186 10.7315L2.59433 12.0166ZM3.3672 14.5249C3.01851 14.1762 2.77303 13.9322 2.59954 13.7225L1.05865 14.9976C1.30717 15.2979 1.63568 15.6218 1.95299 15.9392L3.3672 14.5249ZM2.59636 13.7187C2.42246 13.5107 2.33552 13.3576 2.29556 13.2072L0.362632 13.7209C0.50867 14.2705 0.797735 14.6854 1.06184 15.0014L2.59636 13.7187ZM1.58775 14.43L3.03675 14.042L2.51944 12.1101L1.07044 12.4981L1.58775 14.43ZM1.81126 13.3314C1.87796 13.584 2.01572 13.8042 2.21357 14.0411L3.74862 12.759C3.72329 12.7287 3.70745 12.7078 3.69841 12.6953C3.68936 12.6828 3.68852 12.6805 3.69246 12.6872C3.69665 12.6945 3.70591 12.7114 3.71662 12.7369C3.72196 12.7496 3.72725 12.7636 3.73227 12.7785C3.73733 12.7935 3.74151 12.8077 3.74493 12.8207L1.81126 13.3314ZM2.21221 14.0394C2.40691 14.2736 2.67503 14.5412 3.01499 14.8802L4.4272 13.4639C4.06116 13.0989 3.87128 12.9065 3.74998 12.7607L2.21221 14.0394ZM3.01432 13.4646L1.95332 14.5246L3.36687 15.9395L4.42787 14.8795L3.01432 13.4646ZM1.81221 12.3991C1.73001 12.7056 1.73001 13.0285 1.81221 13.335L3.74398 12.8171C3.75276 12.8498 3.75276 12.8843 3.74398 12.917L1.81221 12.3991ZM2.5196 12.11L1.0696 12.498L1.58659 14.4301L3.03659 14.0421L2.5196 12.11ZM2.29403 13.2053C2.23467 12.9837 2.23467 12.7504 2.29403 12.5288L0.362158 12.0113C0.211963 12.5719 0.211963 13.1622 0.362158 13.7228L2.29403 13.2053ZM3.3672 11.2082C3.71301 10.8623 3.96078 10.615 4.17109 10.4403L2.8931 8.90183C2.59541 9.14913 2.27318 9.47375 1.95299 9.79394L3.3672 11.2082ZM4.17515 10.4369C4.38046 10.2645 4.53349 10.1777 4.6849 10.1375L4.17129 8.20458C3.6227 8.35035 3.20773 8.63763 2.88904 8.90523L4.17515 10.4369ZM4.5617 9.65221C4.30684 9.71953 4.08633 9.86017 3.85458 10.0524L5.13161 11.5917C5.16244 11.5661 5.18388 11.5498 5.19711 11.5403C5.21038 11.5308 5.21343 11.5294 5.20747 11.5329C5.20114 11.5366 5.1848 11.5456 5.15952 11.5563C5.14686 11.5617 5.13279 11.5671 5.11743 11.5723C5.10195 11.5776 5.08685 11.5821 5.07249 11.5859L4.5617 9.65221ZM3.85132 10.0552C3.61968 10.249 3.35459 10.5124 3.01199 10.8559L4.4282 12.2682C4.7896 11.9057 4.98652 11.7131 5.13487 11.5889L3.85132 10.0552ZM7.05143 10.8684C6.78467 10.5914 6.50675 10.3261 6.22063 10.073L4.89556 11.5711C5.14365 11.7905 5.38282 12.019 5.61076 12.2557L7.05143 10.8684ZM6.1987 10.0542C5.96695 9.86084 5.74601 9.71971 5.49049 9.65221L4.9797 11.5859C4.94907 11.5778 4.91941 11.5677 4.89238 11.5562C4.8669 11.5454 4.85031 11.5362 4.84369 11.5323C4.83743 11.5287 4.84017 11.5298 4.8531 11.5392C4.86599 11.5485 4.88707 11.5645 4.91749 11.5899L6.1987 10.0542ZM5.36372 10.1358C5.51618 10.1768 5.6705 10.2649 5.87949 10.4388L7.1587 8.90135C6.84369 8.63924 6.43001 8.35132 5.88248 8.20427L5.36372 10.1358ZM5.87832 10.4378C6.08981 10.6143 6.33851 10.8627 6.68399 11.2082L8.0982 9.79394C7.77768 9.47342 7.45638 9.1498 7.15987 8.90232L5.87832 10.4378ZM6.68366 9.79428L5.62366 10.8553L7.03854 12.2688L8.09854 11.2078L6.68366 9.79428ZM4.68809 10.1359C4.90984 10.0765 5.14235 10.0765 5.3641 10.1359L5.88209 8.20417C5.321 8.05372 4.73119 8.05372 4.1701 8.20417L4.68809 10.1359ZM5.49312 9.65291C5.18713 9.57119 4.86506 9.57119 4.55907 9.65291L5.07512 11.5852C5.043 11.5938 5.00919 11.5938 4.97707 11.5852L5.49312 9.65291ZM5.13503 9.87832L5.13603 9.87732L3.72216 8.46277L3.72116 8.46377L5.13503 9.87832ZM19.9 9.74015L20.634 10.4742L22.0482 9.05994L21.3142 8.32594L19.9 9.74015ZM20.634 9.05994L19.574 10.1199L20.9882 11.5342L22.0482 10.4742L20.634 9.05994ZM20.9872 10.119L20.2522 9.38598L18.84 10.8021L19.575 11.5351L20.9872 10.119ZM20.2532 10.8012L21.3132 9.74116L19.899 8.32694L18.839 9.38694L20.2532 10.8012ZM21.3135 9.74082L21.3145 9.73982L19.8997 8.32628L19.8987 8.32728L21.3135 9.74082ZM20.633 13.7929C20.2872 14.1388 20.0394 14.3861 19.8291 14.5608L21.1071 16.0993C21.4048 15.852 21.727 15.5273 22.0472 15.2072L20.633 13.7929ZM19.825 14.5642C19.6197 14.7366 19.4667 14.8234 19.3153 14.8636L19.8289 16.7965C20.3775 16.6507 20.7925 16.3635 21.1112 16.0959L19.825 14.5642ZM20.5379 15.5706L20.1489 14.1226L18.2173 14.6415L18.6063 16.0895L20.5379 15.5706ZM19.4385 15.3489C19.6934 15.2816 19.9139 15.1409 20.1456 14.9487L18.8686 13.4094C18.8377 13.435 18.8163 13.4513 18.8031 13.4608C18.7898 13.4703 18.7868 13.4717 18.7927 13.4682C18.799 13.4645 18.8154 13.4555 18.8407 13.4448C18.8533 13.4394 18.8674 13.434 18.8828 13.4288C18.8982 13.4235 18.9133 13.419 18.9277 13.4152L19.4385 15.3489ZM20.1489 14.9459C20.3809 14.7517 20.6461 14.4872 20.9872 14.1452L19.571 12.7329C19.2081 13.0969 19.0132 13.2884 18.8653 13.4122L20.1489 14.9459ZM19.5723 14.1465L20.6333 15.2065L22.0469 13.7916L20.9859 12.7316L19.5723 14.1465ZM20.3401 14.499V14.5H22.3401V14.499H20.3401ZM16.962 14.1452C17.3031 14.4872 17.5682 14.7517 17.8003 14.9459L19.0839 13.4122C18.9359 13.2884 18.7411 13.0969 18.3782 12.7329L16.962 14.1452ZM17.8015 14.9469C18.0332 15.1403 18.2542 15.2814 18.5097 15.3489L19.0205 13.4152C19.0511 13.4233 19.0808 13.4334 19.1078 13.4449C19.1333 13.4557 19.1499 13.4649 19.1565 13.4688C19.1628 13.4724 19.16 13.4713 19.1471 13.4619C19.1342 13.4526 19.1131 13.4366 19.0827 13.4112L17.8015 14.9469ZM18.6365 14.8653C18.484 14.8243 18.3297 14.7362 18.1207 14.5623L16.8415 16.0998C17.1565 16.3619 17.5702 16.6498 18.1177 16.7968L18.6365 14.8653ZM18.1219 14.5633C17.9104 14.3868 17.6617 14.1384 17.3162 13.7929L15.902 15.2072C16.2225 15.5277 16.5438 15.8513 16.8403 16.0988L18.1219 14.5633ZM17.3162 15.2072L18.3772 14.1462L16.963 12.7319L15.902 13.7929L17.3162 15.2072ZM19.3122 14.8651C19.0907 14.9245 18.8575 14.9245 18.636 14.8651L18.1182 16.797C18.6789 16.9472 19.2693 16.9472 19.83 16.797L19.3122 14.8651ZM18.5068 15.3481C18.8129 15.43 19.1353 15.43 19.4414 15.3481L18.9248 13.416C18.9571 13.4074 18.9911 13.4074 19.0234 13.416L18.5068 15.3481ZM18.2173 14.6413L18.6063 16.0903L20.5379 15.5718L20.1489 14.1228L18.2173 14.6413ZM19.5721 14.831H19.5711V16.831H19.5721V14.831ZM20.9862 14.1462C21.3258 13.8066 21.5929 13.5398 21.7863 13.3084L20.2519 12.0257C20.1293 12.1723 19.9384 12.3655 19.572 12.7319L20.9862 14.1462ZM21.7866 13.3081C21.9806 13.0758 22.1223 12.8546 22.1899 12.5984L20.2563 12.0877C20.2601 12.0733 20.2646 12.0581 20.2699 12.0425C20.2752 12.027 20.2806 12.0128 20.2861 12C20.2969 11.9743 20.3062 11.9577 20.3101 11.9511C20.3137 11.9449 20.3125 11.9478 20.303 11.9609C20.2935 11.974 20.2772 11.9953 20.2516 12.026L21.7866 13.3081ZM21.7046 12.4742C21.6647 12.6246 21.5777 12.7777 21.4038 12.9857L22.9384 14.2684C23.2025 13.9524 23.4915 13.5375 23.6376 12.9879L21.7046 12.4742ZM21.4034 12.9863C21.2266 13.1981 20.9772 13.4488 20.633 13.7929L22.0472 15.2072C22.369 14.8853 22.6916 14.564 22.9388 14.2678L21.4034 12.9863ZM22.0475 13.7933L20.9875 12.7323L19.5727 14.1458L20.6327 15.2068L22.0475 13.7933ZM20.2801 12.439H20.2791V14.439H20.2801V12.439ZM20.633 10.4762C20.9817 10.8248 21.2272 11.0689 21.4007 11.2786L22.9415 10.0035C22.693 9.7032 22.3645 9.37925 22.0472 9.06194L20.633 10.4762ZM21.4038 11.2824C21.5777 11.4904 21.6647 11.6435 21.7046 11.7939L23.6376 11.2802C23.4915 10.7306 23.2025 10.3157 22.9384 9.99971L21.4038 11.2824ZM22.1853 11.6527C22.1179 11.4144 21.988 11.2011 21.7866 10.96L20.2516 12.2421C20.2769 12.2724 20.2928 12.2933 20.302 12.306C20.3111 12.3187 20.3123 12.3215 20.3088 12.3154C20.3049 12.3089 20.2965 12.2935 20.2865 12.2701C20.2815 12.2585 20.2767 12.246 20.2721 12.2329C20.2675 12.2198 20.2638 12.2077 20.2609 12.1974L22.1853 11.6527ZM21.788 10.9617C21.5933 10.7275 21.3252 10.4599 20.9852 10.1209L19.573 11.5372C19.939 11.9022 20.1289 12.0946 20.2502 12.2404L21.788 10.9617ZM20.9859 11.5365L22.0469 10.4765L20.6333 9.06161L19.5723 10.1216L20.9859 11.5365ZM22.189 12.602C22.2712 12.2955 22.2712 11.9726 22.189 11.6661L20.2572 12.184C20.2484 12.1513 20.2484 12.1168 20.2572 12.0841L22.189 12.602ZM21.7053 11.7964C21.7647 12.0175 21.7647 12.2506 21.7053 12.4717L23.6369 12.9904C23.7875 12.4295 23.7875 11.8386 23.6369 11.2777L21.7053 11.7964ZM10.7061 3.86821C11.0553 3.52008 11.3017 3.27302 11.5121 3.09826L10.2341 1.55984C9.93648 1.80707 9.61287 2.13402 9.29405 2.45188L10.7061 3.86821ZM11.5144 3.09631C11.7225 2.92241 11.8755 2.83547 12.0259 2.79551L11.5123 0.862585C10.9627 1.00862 10.5477 1.29769 10.2318 1.56179L11.5144 3.09631ZM10.8031 2.08771L11.1911 3.53671L13.1231 3.01939L12.7351 1.57039L10.8031 2.08771ZM11.9017 2.31121C11.6492 2.37792 11.429 2.51567 11.1921 2.71352L12.4741 4.24858C12.5044 4.22325 12.5253 4.2074 12.5378 4.19836C12.5504 4.18931 12.5527 4.18847 12.5459 4.19241C12.5387 4.19661 12.5218 4.20586 12.4962 4.21657C12.4835 4.22191 12.4696 4.2272 12.4547 4.23222C12.4397 4.23728 12.4254 4.24146 12.4125 4.24489L11.9017 2.31121ZM11.1937 2.71216C10.9596 2.90686 10.692 3.17498 10.353 3.51495L11.7692 4.92715C12.1342 4.56112 12.3266 4.37124 12.4725 4.24993L11.1937 2.71216ZM11.7685 3.51428L10.7085 2.45328L9.29366 3.86682L10.3537 4.92782L11.7685 3.51428ZM10.0011 2.16005H10.0001V4.16005H10.0011V2.16005ZM14.3916 3.52657C14.1257 3.25031 13.8487 2.98486 13.5615 2.73087L12.2367 4.22922C12.4838 4.44765 12.7219 4.67594 12.9506 4.91353L14.3916 3.52657ZM13.5351 2.70836C13.3039 2.51778 13.084 2.37818 12.8305 2.31121L12.3197 4.24489C12.3054 4.24109 12.2903 4.23662 12.275 4.2314C12.2597 4.22623 12.2458 4.22087 12.2333 4.21559C12.2084 4.20506 12.1923 4.19618 12.1863 4.19266C12.1806 4.18935 12.1838 4.19084 12.1972 4.20044C12.2106 4.21001 12.2322 4.22626 12.2631 4.25173L13.5351 2.70836ZM13.5411 3.53654L13.9291 2.08654L11.9971 1.56956L11.6091 3.01956L13.5411 3.53654ZM12.7037 2.79382C12.8562 2.83477 13.0105 2.92286 13.2195 3.09675L14.4987 1.55935C14.1837 1.29724 13.77 1.00932 13.2225 0.862273L12.7037 2.79382ZM13.218 3.09553C13.4307 3.2732 13.6797 3.52182 14.025 3.86716L15.4392 2.45294C15.1185 2.13227 14.7975 1.80889 14.5002 1.56057L13.218 3.09553ZM13.6721 3.22005H13.6711V5.22005H13.6721V3.22005ZM12.0289 2.79599C12.2504 2.73662 12.4837 2.73662 12.7053 2.79599L13.2229 0.864111C12.6622 0.713916 12.072 0.713916 11.5113 0.864111L12.0289 2.79599ZM11.9982 1.57122L11.6102 3.01922L13.542 3.53687L13.93 2.08887L11.9982 1.57122ZM12.8351 2.31217C12.5238 2.2287 12.2009 2.23224 11.8991 2.31317L12.4171 4.24493C12.3891 4.25243 12.3546 4.25397 12.3171 4.24393L12.8351 2.31217ZM13.1241 3.02056L12.7361 1.57056L10.8041 2.08754L11.1921 3.53754L13.1241 3.02056ZM10.7701 1.82905V1.83005H12.7701V1.82905H10.7701ZM10.356 3.51394C10.0139 3.85506 9.74942 4.12019 9.5552 4.35228L11.089 5.63582C11.2128 5.4879 11.4043 5.29303 11.7682 4.93016L10.356 3.51394ZM9.55249 4.35553C9.36282 4.58414 9.21878 4.80602 9.1511 5.06709L11.0871 5.56901C11.0789 5.60079 11.0685 5.63141 11.0567 5.65922C11.0457 5.6854 11.0362 5.70237 11.0324 5.70896C11.0288 5.71516 11.03 5.71222 11.0397 5.69879C11.0494 5.68542 11.0658 5.66376 11.0917 5.63257L9.55249 4.35553ZM9.63587 5.18743C9.67682 5.03496 9.76491 4.88064 9.9388 4.67166L8.40139 3.39244C8.13929 3.70745 7.85137 4.12114 7.70432 4.66867L9.63587 5.18743ZM9.93782 4.67283C10.1143 4.46134 10.3627 4.21263 10.7082 3.86716L9.29399 2.45294C8.97346 2.77347 8.64985 3.09476 8.40237 3.39127L9.93782 4.67283ZM9.29432 3.86749L10.3553 4.92749L11.7689 3.51261L10.7079 2.45261L9.29432 3.86749ZM10.0621 4.22005V4.22205H12.0621V4.22005H10.0621ZM10.7081 7.18388C10.3626 6.83936 10.114 6.59036 9.93782 6.37927L8.40237 7.66083C8.65018 7.95773 8.9736 8.27873 9.29605 8.60021L10.7081 7.18388ZM9.9388 6.38044C9.76491 6.17145 9.67682 6.01714 9.63587 5.86467L7.70432 6.38343C7.85137 6.93096 8.13929 7.34464 8.40139 7.65966L9.9388 6.38044ZM9.15226 5.99044C9.21919 6.24383 9.35861 6.46518 9.55422 6.69965L11.09 5.41845C11.0649 5.38838 11.0491 5.36757 11.04 5.35493C11.0309 5.34227 11.0298 5.33965 11.0335 5.34596C11.0373 5.35264 11.0464 5.36904 11.057 5.39415C11.0682 5.42076 11.078 5.44981 11.0859 5.47966L9.15226 5.99044ZM9.5552 6.70082C9.74908 6.9325 10.0136 7.19781 10.355 7.53915L11.7692 6.12494C11.4045 5.76028 11.2131 5.5656 11.089 5.41728L9.5552 6.70082ZM10.355 6.12494L9.29499 7.18494L10.7092 8.59915L11.7692 7.53915L10.355 6.12494ZM9.15296 5.06002C9.07124 5.36601 9.07124 5.68709 9.15296 5.99307L11.0852 5.47702C11.0938 5.50914 11.0938 5.54395 11.0852 5.57607L9.15296 5.06002ZM9.63597 5.86505C9.57651 5.6433 9.57651 5.4088 9.63597 5.18704L7.70422 4.66905C7.55376 5.23014 7.55376 5.82196 7.70422 6.38304L9.63597 5.86505ZM3.01377 14.8789L6.31577 18.1829L7.73042 16.7692L4.42842 13.4652L3.01377 14.8789ZM6.31599 16.7689L5.25599 17.8289L6.6702 19.2432L7.7302 18.1832L6.31599 16.7689ZM6.67009 17.8288L3.36609 14.5258L1.9521 15.9403L5.2561 19.2433L6.67009 17.8288ZM3.3662 15.9402L4.4262 14.8802L3.01199 13.4659L1.95199 14.5259L3.3662 15.9402ZM4.16648 15.0674L4.16848 15.0664L3.27371 13.2777L3.27171 13.2787L4.16648 15.0674ZM14.0249 3.86705L17.3279 7.17105L18.7423 5.75705L15.4393 2.45305L14.0249 3.86705ZM17.6823 6.81705L14.3793 3.51305L12.9649 4.92705L16.2679 8.23105L17.6823 6.81705ZM13.6452 17.4619L12.5442 16.3609L11.13 17.7752L12.231 18.8762L13.6452 17.4619ZM12.1906 16.7158L13.2926 17.8158L14.7056 16.4003L13.6036 15.3003L12.1906 16.7158ZM13.292 16.4009L12.231 17.4619L13.6452 18.8762L14.7062 17.8152L13.292 16.4009ZM17.3158 13.7926L16.2158 12.6906L14.8003 14.1035L15.9003 15.2055L17.3158 13.7926ZM15.861 13.0442L16.962 14.1452L18.3762 12.7309L17.2752 11.6299L15.861 13.0442ZM16.962 12.7309L15.902 13.7909L17.3162 15.2052L18.3762 14.1452L16.962 12.7309ZM15.902 13.7909L15.901 13.7919L17.3152 15.2062L17.3162 15.2052L15.902 13.7909ZM12.5442 16.3609L8.1392 11.9559L6.72499 13.3702L11.13 17.7752L12.5442 16.3609ZM8.13954 13.3698L9.19854 12.3098L7.78366 10.8963L6.72466 11.9563L8.13954 13.3698ZM7.78407 12.3102L12.1901 16.7152L13.6041 15.3009L9.19812 10.8959L7.78407 12.3102ZM8.1392 11.9559L7.0382 10.8549L5.62399 12.2692L6.72499 13.3702L8.1392 11.9559ZM7.03854 12.2688L8.09754 11.2088L6.68265 9.79528L5.62365 10.8553L7.03854 12.2688ZM6.68363 11.2098L7.78563 12.3098L9.19856 10.8943L8.09656 9.7943L6.68363 11.2098ZM7.78465 10.8953L6.72466 11.9563L8.13954 13.3698L9.19954 12.3088L7.78465 10.8953ZM16.2142 12.6899L11.8102 8.28594L10.396 9.70015L14.8 14.1042L16.2142 12.6899ZM11.8105 9.69982L12.8705 8.63882L11.4557 7.22528L10.3957 8.28627L11.8105 9.69982ZM11.456 8.63915L15.861 13.0442L17.2752 11.6299L12.8702 7.22494L11.456 8.63915ZM15.5081 12.397H15.5071V14.397H15.5081V12.397ZM11.8102 8.28594L10.7072 7.18294L9.29299 8.59715L10.396 9.70015L11.8102 8.28594ZM10.7069 8.59749L11.7679 7.53749L10.3543 6.12261L9.29332 7.18261L10.7069 8.59749ZM10.3543 7.53748L11.4553 8.63748L12.8689 7.22262L11.7679 6.12262L10.3543 7.53748ZM11.4543 7.22361L10.3943 8.28561L11.8099 9.69849L12.8699 8.63649L11.4543 7.22361ZM10.3947 9.69882L10.3957 9.69982L11.8105 8.28628L11.8095 8.28528L10.3947 9.69882ZM20.253 9.38675C20.2025 9.33613 20.1741 9.26755 20.1741 9.19605H18.1741C18.1741 9.79719 18.4126 10.3738 18.8372 10.7993L20.253 9.38675ZM20.1741 9.19605C20.1741 9.12455 20.2025 9.05596 20.253 9.00535L18.8372 7.59275C18.4126 8.01831 18.1741 8.5949 18.1741 9.19605H20.1741ZM18.838 9.00615L19.898 10.0662L21.3122 8.65194L20.2522 7.59194L18.838 9.00615ZM21.3106 10.0677C21.4254 9.95346 21.5165 9.81762 21.5787 9.66803L19.7318 8.90058C19.7707 8.80694 19.8277 8.7219 19.8996 8.65035L21.3106 10.0677ZM21.5787 9.66803C21.6408 9.51843 21.6728 9.35804 21.6728 9.19605H19.6728C19.6728 9.09464 19.6929 8.99423 19.7318 8.90058L21.5787 9.66803ZM21.6728 9.19605C21.6728 9.03406 21.6408 8.87366 21.5787 8.72407L19.7318 9.49151C19.6929 9.39787 19.6728 9.29746 19.6728 9.19605H21.6728ZM21.5787 8.72407C21.5165 8.57448 21.4254 8.43864 21.3106 8.32435L19.8996 9.74174C19.8277 9.6702 19.7707 9.58516 19.7318 9.49151L21.5787 8.72407ZM19.898 8.32594L18.838 9.38594L20.2522 10.8002L21.3122 9.74015L19.898 8.32594ZM7.82599 21.8132C8.30304 22.2902 9.07919 22.2968 9.56328 21.8181L8.15691 20.396C8.459 20.0973 8.94315 20.1019 9.2402 20.3989L7.82599 21.8132ZM9.56687 20.3996L8.50587 19.3396L7.09232 20.7545L8.15332 21.8145L9.56687 20.3996ZM8.50579 20.7546C8.55642 20.704 8.62504 20.6756 8.6966 20.6756V18.6756C8.09501 18.6756 7.51803 18.9144 7.0924 19.3395L8.50579 20.7546ZM8.6966 20.6756C8.76731 20.6756 8.83518 20.7034 8.8864 20.7546L10.2998 19.3395C9.87475 18.915 9.29902 18.6756 8.6966 18.6756V20.6756ZM8.88566 19.3403L7.82666 20.4003L9.24154 21.8138L10.3005 20.7538L8.88566 19.3403ZM9.24087 20.3996L9.23986 20.3986L7.82633 21.8135L7.82733 21.8145L9.24087 20.3996Z" fill="#6CBFB6" mask="url(#path-1-inside-1_250_318)"/>
<path opacity="0.5" d="M12.3672 16.538L16.0372 12.867M7.96216 12.133L11.6332 8.46204" stroke="#6CBFB6" stroke-width="1.5" stroke-linecap="round"/>
</svg>
