<svg width="25" height="25" viewBox="0 0 25 25" fill="none" xmlns="http://www.w3.org/2000/svg">
<path d="M12.5 16.5C6.73997 16.5 5.71997 10.76 5.53997 6.20599C5.48897 4.93999 5.46397 4.30599 5.93997 3.72099C6.41497 3.13499 6.98397 3.03899 8.12297 2.84699C9.56979 2.60987 11.0339 2.4938 12.5 2.49999C14.284 2.49999 15.753 2.65699 16.877 2.84699C18.016 3.03899 18.585 3.13499 19.061 3.72099C19.537 4.30699 19.511 4.93999 19.461 6.20599C19.281 10.759 18.261 16.5 12.501 16.5H12.5Z" stroke="#6CBFB6" stroke-width="1.5"/>
<path d="M11.5 8.5L13 7V11" stroke="#6CBFB6" stroke-width="1.5" stroke-linecap="round" stroke-linejoin="round"/>
<path opacity="0.5" d="M19.5 5.5L20.449 5.816C21.439 6.146 21.934 6.311 22.217 6.704C22.5 7.097 22.5 7.619 22.5 8.662V8.735C22.5 9.595 22.5 10.026 22.293 10.378C22.086 10.73 21.709 10.939 20.957 11.358L18 13M5.5 5.5L4.551 5.816C3.561 6.146 3.066 6.311 2.783 6.704C2.5 7.097 2.5 7.62 2.5 8.662V8.735C2.5 9.595 2.5 10.026 2.707 10.378C2.914 10.73 3.291 10.939 4.043 11.358L7 13" stroke="#6CBFB6" stroke-width="1.5"/>
<path opacity="0.5" d="M12.5 16.5V19.5" stroke="#6CBFB6" stroke-width="1.5" stroke-linecap="round"/>
<path d="M16 22.5H9L9.34 20.804C9.38529 20.5774 9.50768 20.3735 9.68634 20.2269C9.865 20.0803 10.0889 20.0001 10.32 20H14.68C14.9111 20.0001 15.135 20.0803 15.3137 20.2269C15.4923 20.3735 15.6147 20.5774 15.66 20.804L16 22.5Z" stroke="#6CBFB6" stroke-width="1.5" stroke-linecap="round" stroke-linejoin="round"/>
<path opacity="0.5" d="M18.5 22.5H6.5" stroke="#6CBFB6" stroke-width="1.5" stroke-linecap="round"/>
</svg>
