<svg width="24" height="25" viewBox="0 0 24 25" fill="none" xmlns="http://www.w3.org/2000/svg">
<path d="M12 15.5C13.6569 15.5 15 14.1569 15 12.5C15 10.8431 13.6569 9.5 12 9.5C10.3431 9.5 9 10.8431 9 12.5C9 14.1569 10.3431 15.5 12 15.5Z" stroke="#6CBFB6" stroke-width="1.5"/>
<path d="M14.5 7.5L16 5.5" stroke="#6CBFB6" stroke-width="1.5" stroke-linecap="round"/>
<path opacity="0.5" d="M19 7.5L20 6.5" stroke="#6CBFB6" stroke-width="1.5" stroke-linecap="round"/>
<path d="M12 5.5L11 4.5" stroke="#6CBFB6" stroke-width="1.5" stroke-linecap="round"/>
<path opacity="0.5" d="M10.5 7.5L9.134 7.866M7 5.5L6 4.5" stroke="#6CBFB6" stroke-width="1.5" stroke-linecap="round"/>
<path d="M6.792 9.64396L6.207 8.35596" stroke="#6CBFB6" stroke-width="1.5" stroke-linecap="round"/>
<path d="M12.5 22.5L12.534 23.25C12.67 23.2439 12.8017 23.201 12.9151 23.1258C13.0286 23.0505 13.1194 22.9459 13.1778 22.823C13.2363 22.7001 13.2602 22.5636 13.247 22.4281C13.2339 22.2926 13.1841 22.1633 13.103 22.054L12.5 22.5ZM21.627 15.217L21.14 15.787C21.2357 15.8685 21.3504 15.9246 21.4734 15.9503C21.5965 15.9759 21.724 15.9702 21.8443 15.9336C21.9646 15.8971 22.0737 15.8309 22.1617 15.7411C22.2498 15.6514 22.3138 15.541 22.348 15.42L21.627 15.217ZM18.584 17.123L17.981 17.569C18.0452 17.6557 18.1273 17.7275 18.2217 17.7795C18.3162 17.8315 18.4207 17.8626 18.5283 17.8706C18.6358 17.8786 18.7438 17.8632 18.8449 17.8257C18.9459 17.7881 19.0377 17.7292 19.114 17.653L18.584 17.123ZM18.685 17.021L19.215 17.551C19.2996 17.4666 19.3627 17.3632 19.3993 17.2495C19.4358 17.1357 19.4446 17.0149 19.425 16.897L18.685 17.021ZM14.619 19.791L14.394 20.506C14.5247 20.5471 14.6642 20.5516 14.7973 20.5189C14.9304 20.4863 15.0521 20.4179 15.149 20.321L14.619 19.791ZM14.804 19.606L15.334 20.136C15.461 20.009 15.5382 19.8407 15.5516 19.6615C15.565 19.4824 15.5137 19.3045 15.407 19.16L14.804 19.606ZM12 21.75C9.54675 21.75 7.19397 20.7754 5.45926 19.0407C3.72455 17.306 2.75 14.9533 2.75 12.5H1.25C1.25 18.437 6.063 23.25 12 23.25V21.75ZM2.75 12.5C2.75 10.0467 3.72455 7.69397 5.45926 5.95926C7.19397 4.22455 9.54675 3.25 12 3.25V1.75C6.063 1.75 1.25 6.563 1.25 12.5H2.75ZM12 3.25C14.4533 3.25 16.806 4.22455 18.5407 5.95926C20.2754 7.69397 21.25 10.0467 21.25 12.5H22.75C22.75 6.563 17.937 1.75 12 1.75V3.25ZM13.103 22.054C12.87 21.739 12.903 21.091 13.39 20.731L12.498 19.525C11.381 20.351 11.145 21.929 11.897 22.946L13.103 22.054ZM15.222 18.909C14.926 18.509 14.986 17.684 15.765 17.108L14.873 15.902C13.648 16.809 13.08 18.535 14.016 19.802L15.222 18.909ZM15.765 17.108C16.545 16.531 17.351 16.717 17.646 17.116L18.852 16.224C17.916 14.959 16.099 14.996 14.873 15.902L15.765 17.108ZM19.925 15.898C20.421 15.531 20.925 15.605 21.14 15.788L22.113 14.646C21.246 13.907 19.951 14.013 19.033 14.692L19.925 15.898ZM21.25 12.5C21.2509 13.3499 21.1348 14.1958 20.905 15.014L22.348 15.42C22.61 14.49 22.75 13.511 22.75 12.5H21.25ZM12.466 21.75C12.332 21.757 12.202 21.75 12 21.75V23.25C12.11 23.25 12.36 23.257 12.534 23.25L12.466 21.75ZM17.646 17.116L17.981 17.569L19.187 16.677L18.852 16.224L17.646 17.116ZM19.426 16.897C19.379 16.623 19.512 16.203 19.925 15.898L19.033 14.692C18.242 15.277 17.793 16.228 17.946 17.145L19.426 16.897ZM19.114 17.653L19.216 17.552L18.156 16.491L18.054 16.592L19.114 17.653ZM13.39 20.731C13.747 20.466 14.135 20.425 14.394 20.506L14.844 19.076C14.077 18.834 13.196 19.008 12.498 19.525L13.39 20.731ZM14.016 19.802L14.201 20.051L15.407 19.16L15.222 18.909L14.016 19.802ZM15.149 20.321L15.335 20.136L14.274 19.076L14.089 19.261L15.149 20.321Z" fill="#6CBFB6"/>
<path opacity="0.5" d="M2 13.5C2 13.5 4.2 15.5 6 15.5C7.212 15.5 8.606 14.592 9.387 14M16 16C15.5 15.5 14.471 15.139 14 14.724" stroke="#6CBFB6" stroke-width="1.5"/>
<path opacity="0.5" d="M16.65 9.47705L16.716 10.8891" stroke="#6CBFB6" stroke-width="1.5" stroke-linecap="round"/>
<path d="M20.678 10.585L19 12.063M5.66501 13.141L6.50001 12" stroke="#6CBFB6" stroke-width="1.5" stroke-linecap="round"/>
<path opacity="0.5" d="M3.683 10.85L3.604 9.43799" stroke="#6CBFB6" stroke-width="1.5" stroke-linecap="round"/>
</svg>
