<svg width="70" height="70" viewBox="0 0 70 70" fill="none" xmlns="http://www.w3.org/2000/svg">
<path d="M0 25C0 13.2149 0 7.32233 3.66117 3.66117C7.32233 0 13.2149 0 25 0H45C56.7851 0 62.6777 0 66.3388 3.66117C70 7.32233 70 13.2149 70 25V45C70 56.7851 70 62.6777 66.3388 66.3388C62.6777 70 56.7851 70 45 70H25C13.2149 70 7.32233 70 3.66117 66.3388C0 62.6777 0 56.7851 0 45V25Z" fill="black" fill-opacity="0.45"/>
<path d="M45.625 27.5H24.375M43.5413 30.625L42.9662 39.25C42.745 42.5675 42.635 44.2263 41.5538 45.2375C40.4725 46.25 38.81 46.25 35.4838 46.25H34.5162C31.1912 46.25 29.5287 46.25 28.4462 45.2375C27.365 44.2263 27.255 42.5675 27.0337 39.25L26.4587 30.625" stroke="white" stroke-width="1.5" stroke-linecap="round"/>
<path opacity="0.5" d="M31.875 33.75L32.5 40M38.125 33.75L37.5 40" stroke="white" stroke-width="1.5" stroke-linecap="round"/>
<path opacity="0.5" d="M28.125 27.5H28.2625C28.7656 27.4871 29.253 27.3228 29.6612 27.0284C30.0693 26.734 30.3791 26.3233 30.55 25.85L30.5925 25.7213L30.7138 25.3575C30.8175 25.0462 30.87 24.8912 30.9388 24.7587C31.074 24.4992 31.2681 24.275 31.5056 24.1039C31.7431 23.9329 32.0173 23.8198 32.3063 23.7738C32.4525 23.75 32.6162 23.75 32.9437 23.75H37.0563C37.3838 23.75 37.5475 23.75 37.6937 23.7738C37.9827 23.8198 38.2569 23.9329 38.4944 24.1039C38.7319 24.275 38.926 24.4992 39.0612 24.7587C39.13 24.8912 39.1825 25.0462 39.2862 25.3575L39.4075 25.7213C39.5659 26.2478 39.8935 26.7075 40.3396 27.0291C40.7857 27.3506 41.3253 27.5162 41.875 27.5" stroke="white" stroke-width="1.5"/>
</svg>
